<svg xmlns="http://www.w3.org/2000/svg" viewBox="0 0 1000 560" font-family="system-ui,-apple-system,sans-serif">
<rect width="1000" height="560" fill="white"/>
<line x1="64" y1="524.0" x2="960" y2="524.0" stroke="#e2e8f0" stroke-width="1"/>
<text x="966" y="528.0" font-size="11" fill="#718096">2.72</text>
<line x1="64" y1="403.0" x2="960" y2="403.0" stroke="#e2e8f0" stroke-width="1"/>
<text x="966" y="407.0" font-size="11" fill="#718096">4.12</text>
<line x1="64" y1="282.0" x2="960" y2="282.0" stroke="#e2e8f0" stroke-width="1"/>
<text x="966" y="286.0" font-size="11" fill="#718096">5.52</text>
<line x1="64" y1="161.0" x2="960" y2="161.0" stroke="#e2e8f0" stroke-width="1"/>
<text x="966" y="165.0" font-size="11" fill="#718096">6.92</text>
<line x1="64" y1="40.0" x2="960" y2="40.0" stroke="#e2e8f0" stroke-width="1"/>
<text x="966" y="44.0" font-size="11" fill="#718096">8.32</text>
<line x1="64.0" y1="445.3" x2="72.5" y2="398.7" stroke="#2f855a" stroke-width="1.6"/>
<line x1="72.5" y1="398.7" x2="80.9" y2="428.1" stroke="#c53030" stroke-width="1.6"/>
<line x1="80.9" y1="428.1" x2="89.4" y2="402.1" stroke="#2f855a" stroke-width="1.6"/>
<line x1="89.4" y1="402.1" x2="97.8" y2="441.0" stroke="#c53030" stroke-width="1.6"/>
<line x1="97.8" y1="441.0" x2="106.3" y2="269.9" stroke="#2f855a" stroke-width="1.6"/>
<line x1="106.3" y1="269.9" x2="114.7" y2="318.3" stroke="#c53030" stroke-width="1.6"/>
<line x1="114.7" y1="318.3" x2="123.2" y2="266.4" stroke="#2f855a" stroke-width="1.6"/>
<line x1="123.2" y1="266.4" x2="131.6" y2="329.5" stroke="#c53030" stroke-width="1.6"/>
<line x1="131.6" y1="329.5" x2="140.1" y2="92.7" stroke="#2f855a" stroke-width="1.6"/>
<line x1="140.1" y1="92.7" x2="148.5" y2="202.5" stroke="#c53030" stroke-width="1.6"/>
<line x1="148.5" y1="202.5" x2="157.0" y2="121.2" stroke="#2f855a" stroke-width="1.6"/>
<line x1="157.0" y1="121.2" x2="165.4" y2="330.4" stroke="#c53030" stroke-width="1.6"/>
<line x1="165.4" y1="330.4" x2="173.9" y2="237.9" stroke="#2f855a" stroke-width="1.6"/>
<line x1="173.9" y1="237.9" x2="182.3" y2="386.6" stroke="#c53030" stroke-width="1.6"/>
<line x1="182.3" y1="386.6" x2="190.8" y2="333.9" stroke="#2f855a" stroke-width="1.6"/>
<line x1="190.8" y1="333.9" x2="199.2" y2="389.2" stroke="#c53030" stroke-width="1.6"/>
<line x1="199.2" y1="389.2" x2="207.7" y2="295.8" stroke="#2f855a" stroke-width="1.6"/>
<line x1="207.7" y1="295.8" x2="216.2" y2="389.2" stroke="#c53030" stroke-width="1.6"/>
<line x1="216.2" y1="389.2" x2="224.6" y2="341.6" stroke="#2f855a" stroke-width="1.6"/>
<line x1="224.6" y1="341.6" x2="233.1" y2="384.9" stroke="#c53030" stroke-width="1.6"/>
<line x1="233.1" y1="384.9" x2="241.5" y2="334.7" stroke="#2f855a" stroke-width="1.6"/>
<line x1="241.5" y1="334.7" x2="250.0" y2="412.5" stroke="#c53030" stroke-width="1.6"/>
<line x1="250.0" y1="412.5" x2="258.4" y2="377.1" stroke="#2f855a" stroke-width="1.6"/>
<line x1="258.4" y1="377.1" x2="266.9" y2="405.6" stroke="#c53030" stroke-width="1.6"/>
<line x1="266.9" y1="405.6" x2="275.3" y2="370.2" stroke="#2f855a" stroke-width="1.6"/>
<line x1="275.3" y1="370.2" x2="283.8" y2="403.9" stroke="#c53030" stroke-width="1.6"/>
<line x1="283.8" y1="403.9" x2="292.2" y2="370.2" stroke="#2f855a" stroke-width="1.6"/>
<line x1="292.2" y1="370.2" x2="300.7" y2="410.8" stroke="#c53030" stroke-width="1.6"/>
<line x1="300.7" y1="410.8" x2="309.1" y2="353.7" stroke="#2f855a" stroke-width="1.6"/>
<line x1="309.1" y1="353.7" x2="317.6" y2="391.8" stroke="#c53030" stroke-width="1.6"/>
<line x1="317.6" y1="391.8" x2="326.0" y2="315.7" stroke="#2f855a" stroke-width="1.6"/>
<line x1="326.0" y1="315.7" x2="334.5" y2="404.7" stroke="#c53030" stroke-width="1.6"/>
<line x1="334.5" y1="404.7" x2="342.9" y2="284.6" stroke="#2f855a" stroke-width="1.6"/>
<line x1="342.9" y1="284.6" x2="351.4" y2="357.2" stroke="#c53030" stroke-width="1.6"/>
<line x1="351.4" y1="357.2" x2="359.8" y2="298.4" stroke="#2f855a" stroke-width="1.6"/>
<line x1="359.8" y1="298.4" x2="368.3" y2="450.5" stroke="#c53030" stroke-width="1.6"/>
<line x1="368.3" y1="450.5" x2="376.8" y2="413.4" stroke="#2f855a" stroke-width="1.6"/>
<line x1="376.8" y1="413.4" x2="385.2" y2="498.1" stroke="#c53030" stroke-width="1.6"/>
<line x1="385.2" y1="498.1" x2="393.7" y2="375.3" stroke="#2f855a" stroke-width="1.6"/>
<line x1="393.7" y1="375.3" x2="402.1" y2="428.9" stroke="#c53030" stroke-width="1.6"/>
<line x1="402.1" y1="428.9" x2="410.6" y2="390.0" stroke="#2f855a" stroke-width="1.6"/>
<line x1="410.6" y1="390.0" x2="419.0" y2="469.6" stroke="#c53030" stroke-width="1.6"/>
<line x1="419.0" y1="469.6" x2="427.5" y2="420.3" stroke="#2f855a" stroke-width="1.6"/>
<line x1="427.5" y1="420.3" x2="435.9" y2="452.3" stroke="#c53030" stroke-width="1.6"/>
<line x1="435.9" y1="452.3" x2="444.4" y2="422.0" stroke="#2f855a" stroke-width="1.6"/>
<line x1="444.4" y1="422.0" x2="452.8" y2="470.4" stroke="#c53030" stroke-width="1.6"/>
<line x1="452.8" y1="470.4" x2="461.3" y2="450.5" stroke="#2f855a" stroke-width="1.6"/>
<line x1="461.3" y1="450.5" x2="469.7" y2="467.0" stroke="#c53030" stroke-width="1.6"/>
<line x1="469.7" y1="467.0" x2="478.2" y2="389.2" stroke="#2f855a" stroke-width="1.6"/>
<line x1="478.2" y1="389.2" x2="486.6" y2="416.8" stroke="#c53030" stroke-width="1.6"/>
<line x1="486.6" y1="416.8" x2="495.1" y2="308.8" stroke="#2f855a" stroke-width="1.6"/>
<line x1="495.1" y1="308.8" x2="503.5" y2="352.9" stroke="#c53030" stroke-width="1.6"/>
<line x1="503.5" y1="352.9" x2="512.0" y2="319.2" stroke="#2f855a" stroke-width="1.6"/>
<line x1="512.0" y1="319.2" x2="520.5" y2="373.6" stroke="#c53030" stroke-width="1.6"/>
<line x1="520.5" y1="373.6" x2="528.9" y2="321.8" stroke="#2f855a" stroke-width="1.6"/>
<line x1="528.9" y1="321.8" x2="537.4" y2="373.6" stroke="#c53030" stroke-width="1.6"/>
<line x1="537.4" y1="373.6" x2="545.8" y2="326.1" stroke="#2f855a" stroke-width="1.6"/>
<line x1="545.8" y1="326.1" x2="554.3" y2="381.4" stroke="#c53030" stroke-width="1.6"/>
<line x1="554.3" y1="381.4" x2="562.7" y2="168.8" stroke="#2f855a" stroke-width="1.6"/>
<line x1="562.7" y1="168.8" x2="571.2" y2="275.1" stroke="#c53030" stroke-width="1.6"/>
<line x1="571.2" y1="275.1" x2="579.6" y2="102.2" stroke="#2f855a" stroke-width="1.6"/>
<line x1="579.6" y1="102.2" x2="588.1" y2="174.0" stroke="#c53030" stroke-width="1.6"/>
<line x1="588.1" y1="174.0" x2="596.5" y2="95.3" stroke="#2f855a" stroke-width="1.6"/>
<line x1="596.5" y1="95.3" x2="605.0" y2="161.0" stroke="#c53030" stroke-width="1.6"/>
<line x1="605.0" y1="161.0" x2="613.4" y2="65.9" stroke="#2f855a" stroke-width="1.6"/>
<line x1="613.4" y1="65.9" x2="621.9" y2="216.3" stroke="#c53030" stroke-width="1.6"/>
<line x1="621.9" y1="216.3" x2="630.3" y2="107.4" stroke="#2f855a" stroke-width="1.6"/>
<line x1="630.3" y1="107.4" x2="638.8" y2="350.3" stroke="#c53030" stroke-width="1.6"/>
<line x1="638.8" y1="350.3" x2="647.2" y2="304.5" stroke="#2f855a" stroke-width="1.6"/>
<line x1="647.2" y1="304.5" x2="655.7" y2="339.9" stroke="#c53030" stroke-width="1.6"/>
<line x1="655.7" y1="339.9" x2="664.2" y2="258.7" stroke="#2f855a" stroke-width="1.6"/>
<line x1="664.2" y1="258.7" x2="672.6" y2="331.3" stroke="#c53030" stroke-width="1.6"/>
<line x1="672.6" y1="331.3" x2="681.1" y2="294.1" stroke="#2f855a" stroke-width="1.6"/>
<line x1="681.1" y1="294.1" x2="689.5" y2="372.8" stroke="#c53030" stroke-width="1.6"/>
<line x1="689.5" y1="372.8" x2="698.0" y2="335.6" stroke="#2f855a" stroke-width="1.6"/>
<line x1="698.0" y1="335.6" x2="706.4" y2="365.0" stroke="#c53030" stroke-width="1.6"/>
<line x1="706.4" y1="365.0" x2="714.9" y2="325.2" stroke="#2f855a" stroke-width="1.6"/>
<line x1="714.9" y1="325.2" x2="723.3" y2="380.5" stroke="#c53030" stroke-width="1.6"/>
<line x1="723.3" y1="380.5" x2="731.8" y2="307.9" stroke="#2f855a" stroke-width="1.6"/>
<line x1="731.8" y1="307.9" x2="740.2" y2="350.3" stroke="#c53030" stroke-width="1.6"/>
<line x1="740.2" y1="350.3" x2="748.7" y2="292.4" stroke="#2f855a" stroke-width="1.6"/>
<line x1="748.7" y1="292.4" x2="757.1" y2="377.9" stroke="#c53030" stroke-width="1.6"/>
<line x1="757.1" y1="377.9" x2="765.6" y2="222.4" stroke="#2f855a" stroke-width="1.6"/>
<line x1="765.6" y1="222.4" x2="774.0" y2="292.4" stroke="#c53030" stroke-width="1.6"/>
<line x1="774.0" y1="292.4" x2="782.5" y2="245.7" stroke="#2f855a" stroke-width="1.6"/>
<line x1="782.5" y1="245.7" x2="790.9" y2="301.9" stroke="#c53030" stroke-width="1.6"/>
<line x1="790.9" y1="301.9" x2="799.4" y2="199.9" stroke="#2f855a" stroke-width="1.6"/>
<line x1="799.4" y1="199.9" x2="807.8" y2="240.5" stroke="#c53030" stroke-width="1.6"/>
<line x1="807.8" y1="240.5" x2="816.3" y2="186.1" stroke="#2f855a" stroke-width="1.6"/>
<line x1="816.3" y1="186.1" x2="824.8" y2="231.9" stroke="#c53030" stroke-width="1.6"/>
<line x1="824.8" y1="231.9" x2="833.2" y2="154.1" stroke="#2f855a" stroke-width="1.6"/>
<line x1="833.2" y1="154.1" x2="841.7" y2="236.2" stroke="#c53030" stroke-width="1.6"/>
<line x1="841.7" y1="236.2" x2="850.1" y2="181.7" stroke="#2f855a" stroke-width="1.6"/>
<line x1="850.1" y1="181.7" x2="858.6" y2="268.2" stroke="#c53030" stroke-width="1.6"/>
<line x1="858.6" y1="268.2" x2="867.0" y2="190.4" stroke="#2f855a" stroke-width="1.6"/>
<line x1="867.0" y1="190.4" x2="875.5" y2="316.6" stroke="#c53030" stroke-width="1.6"/>
<line x1="875.5" y1="316.6" x2="883.9" y2="256.1" stroke="#2f855a" stroke-width="1.6"/>
<line x1="883.9" y1="256.1" x2="892.4" y2="295.8" stroke="#c53030" stroke-width="1.6"/>
<line x1="892.4" y1="295.8" x2="900.8" y2="217.2" stroke="#2f855a" stroke-width="1.6"/>
<line x1="900.8" y1="217.2" x2="909.3" y2="356.3" stroke="#c53030" stroke-width="1.6"/>
<line x1="909.3" y1="356.3" x2="917.7" y2="320.0" stroke="#2f855a" stroke-width="1.6"/>
<line x1="917.7" y1="320.0" x2="926.2" y2="350.3" stroke="#c53030" stroke-width="1.6"/>
<line x1="926.2" y1="350.3" x2="934.6" y2="316.6" stroke="#2f855a" stroke-width="1.6"/>
<line x1="934.6" y1="316.6" x2="943.1" y2="351.1" stroke="#c53030" stroke-width="1.6"/>
<line x1="943.1" y1="351.1" x2="951.5" y2="308.8" stroke="#2f855a" stroke-width="1.6"/>
<line x1="951.5" y1="308.8" x2="960.0" y2="343.4" stroke="#c53030" stroke-width="1.6"/>
<circle cx="64.0" cy="445.3" r="2.2" fill="#475569"/>
<circle cx="72.5" cy="398.7" r="2.2" fill="#475569"/>
<circle cx="80.9" cy="428.1" r="2.2" fill="#475569"/>
<circle cx="89.4" cy="402.1" r="2.2" fill="#475569"/>
<circle cx="97.8" cy="441.0" r="2.2" fill="#475569"/>
<circle cx="106.3" cy="269.9" r="2.2" fill="#475569"/>
<circle cx="114.7" cy="318.3" r="2.2" fill="#475569"/>
<circle cx="123.2" cy="266.4" r="2.2" fill="#475569"/>
<circle cx="131.6" cy="329.5" r="2.2" fill="#475569"/>
<circle cx="140.1" cy="92.7" r="2.2" fill="#475569"/>
<circle cx="148.5" cy="202.5" r="2.2" fill="#475569"/>
<circle cx="157.0" cy="121.2" r="2.2" fill="#475569"/>
<circle cx="165.4" cy="330.4" r="2.2" fill="#475569"/>
<circle cx="173.9" cy="237.9" r="2.2" fill="#475569"/>
<circle cx="182.3" cy="386.6" r="2.2" fill="#475569"/>
<circle cx="190.8" cy="333.9" r="2.2" fill="#475569"/>
<circle cx="199.2" cy="389.2" r="2.2" fill="#475569"/>
<circle cx="207.7" cy="295.8" r="2.2" fill="#475569"/>
<circle cx="216.2" cy="389.2" r="2.2" fill="#475569"/>
<circle cx="224.6" cy="341.6" r="2.2" fill="#475569"/>
<circle cx="233.1" cy="384.9" r="2.2" fill="#475569"/>
<circle cx="241.5" cy="334.7" r="2.2" fill="#475569"/>
<circle cx="250.0" cy="412.5" r="2.2" fill="#475569"/>
<circle cx="258.4" cy="377.1" r="2.2" fill="#475569"/>
<circle cx="266.9" cy="405.6" r="2.2" fill="#475569"/>
<circle cx="275.3" cy="370.2" r="2.2" fill="#475569"/>
<circle cx="283.8" cy="403.9" r="2.2" fill="#475569"/>
<circle cx="292.2" cy="370.2" r="2.2" fill="#475569"/>
<circle cx="300.7" cy="410.8" r="2.2" fill="#475569"/>
<circle cx="309.1" cy="353.7" r="2.2" fill="#475569"/>
<circle cx="317.6" cy="391.8" r="2.2" fill="#475569"/>
<circle cx="326.0" cy="315.7" r="2.2" fill="#475569"/>
<circle cx="334.5" cy="404.7" r="2.2" fill="#475569"/>
<circle cx="342.9" cy="284.6" r="2.2" fill="#475569"/>
<circle cx="351.4" cy="357.2" r="2.2" fill="#475569"/>
<circle cx="359.8" cy="298.4" r="2.2" fill="#475569"/>
<circle cx="368.3" cy="450.5" r="2.2" fill="#475569"/>
<circle cx="376.8" cy="413.4" r="2.2" fill="#475569"/>
<circle cx="385.2" cy="498.1" r="2.2" fill="#475569"/>
<circle cx="393.7" cy="375.3" r="2.2" fill="#475569"/>
<circle cx="402.1" cy="428.9" r="2.2" fill="#475569"/>
<circle cx="410.6" cy="390.0" r="2.2" fill="#475569"/>
<circle cx="419.0" cy="469.6" r="2.2" fill="#475569"/>
<circle cx="427.5" cy="420.3" r="2.2" fill="#475569"/>
<circle cx="435.9" cy="452.3" r="2.2" fill="#475569"/>
<circle cx="444.4" cy="422.0" r="2.2" fill="#475569"/>
<circle cx="452.8" cy="470.4" r="2.2" fill="#475569"/>
<circle cx="461.3" cy="450.5" r="2.2" fill="#475569"/>
<circle cx="469.7" cy="467.0" r="2.2" fill="#475569"/>
<circle cx="478.2" cy="389.2" r="2.2" fill="#475569"/>
<circle cx="486.6" cy="416.8" r="2.2" fill="#475569"/>
<circle cx="495.1" cy="308.8" r="2.2" fill="#475569"/>
<circle cx="503.5" cy="352.9" r="2.2" fill="#475569"/>
<circle cx="512.0" cy="319.2" r="2.2" fill="#475569"/>
<circle cx="520.5" cy="373.6" r="2.2" fill="#475569"/>
<circle cx="528.9" cy="321.8" r="2.2" fill="#475569"/>
<circle cx="537.4" cy="373.6" r="2.2" fill="#475569"/>
<circle cx="545.8" cy="326.1" r="2.2" fill="#475569"/>
<circle cx="554.3" cy="381.4" r="2.2" fill="#475569"/>
<circle cx="562.7" cy="168.8" r="2.2" fill="#475569"/>
<circle cx="571.2" cy="275.1" r="2.2" fill="#475569"/>
<circle cx="579.6" cy="102.2" r="2.2" fill="#475569"/>
<circle cx="588.1" cy="174.0" r="2.2" fill="#475569"/>
<circle cx="596.5" cy="95.3" r="2.2" fill="#475569"/>
<circle cx="605.0" cy="161.0" r="2.2" fill="#475569"/>
<circle cx="613.4" cy="65.9" r="2.2" fill="#475569"/>
<circle cx="621.9" cy="216.3" r="2.2" fill="#475569"/>
<circle cx="630.3" cy="107.4" r="2.2" fill="#475569"/>
<circle cx="638.8" cy="350.3" r="2.2" fill="#475569"/>
<circle cx="647.2" cy="304.5" r="2.2" fill="#475569"/>
<circle cx="655.7" cy="339.9" r="2.2" fill="#475569"/>
<circle cx="664.2" cy="258.7" r="2.2" fill="#475569"/>
<circle cx="672.6" cy="331.3" r="2.2" fill="#475569"/>
<circle cx="681.1" cy="294.1" r="2.2" fill="#475569"/>
<circle cx="689.5" cy="372.8" r="2.2" fill="#475569"/>
<circle cx="698.0" cy="335.6" r="2.2" fill="#475569"/>
<circle cx="706.4" cy="365.0" r="2.2" fill="#475569"/>
<circle cx="714.9" cy="325.2" r="2.2" fill="#475569"/>
<circle cx="723.3" cy="380.5" r="2.2" fill="#475569"/>
<circle cx="731.8" cy="307.9" r="2.2" fill="#475569"/>
<circle cx="740.2" cy="350.3" r="2.2" fill="#475569"/>
<circle cx="748.7" cy="292.4" r="2.2" fill="#475569"/>
<circle cx="757.1" cy="377.9" r="2.2" fill="#475569"/>
<circle cx="765.6" cy="222.4" r="2.2" fill="#475569"/>
<circle cx="774.0" cy="292.4" r="2.2" fill="#475569"/>
<circle cx="782.5" cy="245.7" r="2.2" fill="#475569"/>
<circle cx="790.9" cy="301.9" r="2.2" fill="#475569"/>
<circle cx="799.4" cy="199.9" r="2.2" fill="#475569"/>
<circle cx="807.8" cy="240.5" r="2.2" fill="#475569"/>
<circle cx="816.3" cy="186.1" r="2.2" fill="#475569"/>
<circle cx="824.8" cy="231.9" r="2.2" fill="#475569"/>
<circle cx="833.2" cy="154.1" r="2.2" fill="#475569"/>
<circle cx="841.7" cy="236.2" r="2.2" fill="#475569"/>
<circle cx="850.1" cy="181.7" r="2.2" fill="#475569"/>
<circle cx="858.6" cy="268.2" r="2.2" fill="#475569"/>
<circle cx="867.0" cy="190.4" r="2.2" fill="#475569"/>
<circle cx="875.5" cy="316.6" r="2.2" fill="#475569"/>
<circle cx="883.9" cy="256.1" r="2.2" fill="#475569"/>
<circle cx="892.4" cy="295.8" r="2.2" fill="#475569"/>
<circle cx="900.8" cy="217.2" r="2.2" fill="#475569"/>
<circle cx="909.3" cy="356.3" r="2.2" fill="#475569"/>
<circle cx="917.7" cy="320.0" r="2.2" fill="#475569"/>
<circle cx="926.2" cy="350.3" r="2.2" fill="#475569"/>
<circle cx="934.6" cy="316.6" r="2.2" fill="#475569"/>
<circle cx="943.1" cy="351.1" r="2.2" fill="#475569"/>
<circle cx="951.5" cy="308.8" r="2.2" fill="#475569"/>
<circle cx="960.0" cy="343.4" r="2.2" fill="#475569"/>
<line x1="64" y1="379.7" x2="960" y2="379.7" stroke="#2563eb" stroke-width="1.2" stroke-dasharray="3,4"/>
<text x="68" y="375.7" font-size="10" fill="#2563eb">target 4.39 (C = A from B extreme)</text>
<text x="64" y="24" font-size="16" font-weight="600" fill="#1a202c">NIO — Elliott Wave count — triangle_contract (down)</text>
<text x="64" y="550" font-size="11" fill="#718096">Degree 2 E in progress; within it, degree 1 (C) unfolding (zigzag)</text>
<text x="385.2" y="531.1" font-size="13" font-style="normal" fill="#1a202c" text-anchor="middle">A</text>
<text x="199.2" y="407.2" font-size="10" font-style="normal" fill="#718096" text-anchor="middle">(A)</text>
<text x="342.9" y="276.6" font-size="10" font-style="normal" fill="#718096" text-anchor="middle">(B)</text>
<text x="385.2" y="516.1" font-size="10" font-style="normal" fill="#718096" text-anchor="middle">(C)</text>
<text x="579.6" y="82.2" font-size="13" font-style="normal" fill="#1a202c" text-anchor="middle">B</text>
<text x="495.1" y="300.8" font-size="10" font-style="normal" fill="#718096" text-anchor="middle">(A)</text>
<text x="520.5" y="391.6" font-size="10" font-style="normal" fill="#718096" text-anchor="middle">(B)</text>
<text x="579.6" y="94.2" font-size="10" font-style="normal" fill="#718096" text-anchor="middle">(C)</text>
<text x="723.3" y="413.5" font-size="13" font-style="normal" fill="#1a202c" text-anchor="middle">C</text>
<text x="638.8" y="368.3" font-size="10" font-style="normal" fill="#718096" text-anchor="middle">(A)</text>
<text x="664.2" y="250.7" font-size="10" font-style="normal" fill="#718096" text-anchor="middle">(B)</text>
<text x="723.3" y="398.5" font-size="10" font-style="normal" fill="#718096" text-anchor="middle">(C)</text>
<text x="833.2" y="134.1" font-size="13" font-style="normal" fill="#1a202c" text-anchor="middle">D</text>
<text x="765.6" y="214.4" font-size="10" font-style="normal" fill="#718096" text-anchor="middle">(A)</text>
<text x="790.9" y="319.9" font-size="10" font-style="normal" fill="#718096" text-anchor="middle">(B)</text>
<text x="833.2" y="146.1" font-size="10" font-style="normal" fill="#718096" text-anchor="middle">(C)</text>
<text x="960.0" y="376.4" font-size="13" font-style="italic" fill="#1a202c" text-anchor="middle">E</text>
<text x="875.5" y="334.6" font-size="10" font-style="normal" fill="#718096" text-anchor="middle">(A)</text>
<text x="900.8" y="209.2" font-size="10" font-style="normal" fill="#718096" text-anchor="middle">(B)</text>
<text x="960.0" y="361.4" font-size="10" font-style="italic" fill="#718096" text-anchor="middle">(C)</text>
</svg>