<svg xmlns="http://www.w3.org/2000/svg" viewBox="0 0 1000 560" font-family="system-ui,-apple-system,sans-serif">
<rect width="1000" height="560" fill="white"/>
<line x1="64" y1="524.0" x2="960" y2="524.0" stroke="#e2e8f0" stroke-width="1"/>
<text x="966" y="528.0" font-size="11" fill="#718096">-2.76</text>
<line x1="64" y1="403.0" x2="960" y2="403.0" stroke="#e2e8f0" stroke-width="1"/>
<text x="966" y="407.0" font-size="11" fill="#718096">15.67</text>
<line x1="64" y1="282.0" x2="960" y2="282.0" stroke="#e2e8f0" stroke-width="1"/>
<text x="966" y="286.0" font-size="11" fill="#718096">34.09</text>
<line x1="64" y1="161.0" x2="960" y2="161.0" stroke="#e2e8f0" stroke-width="1"/>
<text x="966" y="165.0" font-size="11" fill="#718096">52.51</text>
<line x1="64" y1="40.0" x2="960" y2="40.0" stroke="#e2e8f0" stroke-width="1"/>
<text x="966" y="44.0" font-size="11" fill="#718096">70.94</text>
<line x1="64.0" y1="451.0" x2="72.1" y2="469.0" stroke="#c53030" stroke-width="1.6"/>
<line x1="72.1" y1="469.0" x2="80.1" y2="452.0" stroke="#2f855a" stroke-width="1.6"/>
<line x1="80.1" y1="452.0" x2="88.2" y2="467.5" stroke="#c53030" stroke-width="1.6"/>
<line x1="88.2" y1="467.5" x2="96.3" y2="449.5" stroke="#2f855a" stroke-width="1.6"/>
<line x1="96.3" y1="449.5" x2="104.4" y2="459.0" stroke="#c53030" stroke-width="1.6"/>
<line x1="104.4" y1="459.0" x2="112.4" y2="436.0" stroke="#2f855a" stroke-width="1.6"/>
<line x1="112.4" y1="436.0" x2="120.5" y2="490.5" stroke="#c53030" stroke-width="1.6"/>
<line x1="120.5" y1="490.5" x2="128.6" y2="479.6" stroke="#2f855a" stroke-width="1.6"/>
<line x1="128.6" y1="479.6" x2="136.6" y2="488.9" stroke="#c53030" stroke-width="1.6"/>
<line x1="136.6" y1="488.9" x2="144.7" y2="484.0" stroke="#2f855a" stroke-width="1.6"/>
<line x1="144.7" y1="484.0" x2="152.8" y2="498.1" stroke="#c53030" stroke-width="1.6"/>
<line x1="152.8" y1="498.1" x2="160.9" y2="489.7" stroke="#2f855a" stroke-width="1.6"/>
<line x1="160.9" y1="489.7" x2="168.9" y2="495.0" stroke="#c53030" stroke-width="1.6"/>
<line x1="168.9" y1="495.0" x2="177.0" y2="473.9" stroke="#2f855a" stroke-width="1.6"/>
<line x1="177.0" y1="473.9" x2="185.1" y2="485.3" stroke="#c53030" stroke-width="1.6"/>
<line x1="185.1" y1="485.3" x2="193.2" y2="468.8" stroke="#2f855a" stroke-width="1.6"/>
<line x1="193.2" y1="468.8" x2="201.2" y2="482.8" stroke="#c53030" stroke-width="1.6"/>
<line x1="201.2" y1="482.8" x2="209.3" y2="471.8" stroke="#2f855a" stroke-width="1.6"/>
<line x1="209.3" y1="471.8" x2="217.4" y2="492.0" stroke="#c53030" stroke-width="1.6"/>
<line x1="217.4" y1="492.0" x2="225.4" y2="479.7" stroke="#2f855a" stroke-width="1.6"/>
<line x1="225.4" y1="479.7" x2="233.5" y2="485.7" stroke="#c53030" stroke-width="1.6"/>
<line x1="233.5" y1="485.7" x2="241.6" y2="397.9" stroke="#2f855a" stroke-width="1.6"/>
<line x1="241.6" y1="397.9" x2="249.7" y2="437.2" stroke="#c53030" stroke-width="1.6"/>
<line x1="249.7" y1="437.2" x2="257.7" y2="367.6" stroke="#2f855a" stroke-width="1.6"/>
<line x1="257.7" y1="367.6" x2="265.8" y2="403.4" stroke="#c53030" stroke-width="1.6"/>
<line x1="265.8" y1="403.4" x2="273.9" y2="149.9" stroke="#2f855a" stroke-width="1.6"/>
<line x1="273.9" y1="149.9" x2="281.9" y2="236.0" stroke="#c53030" stroke-width="1.6"/>
<line x1="281.9" y1="236.0" x2="290.0" y2="130.2" stroke="#2f855a" stroke-width="1.6"/>
<line x1="290.0" y1="130.2" x2="298.1" y2="253.5" stroke="#c53030" stroke-width="1.6"/>
<line x1="298.1" y1="253.5" x2="306.2" y2="65.9" stroke="#2f855a" stroke-width="1.6"/>
<line x1="306.2" y1="65.9" x2="314.2" y2="296.3" stroke="#c53030" stroke-width="1.6"/>
<line x1="314.2" y1="296.3" x2="322.3" y2="201.9" stroke="#2f855a" stroke-width="1.6"/>
<line x1="322.3" y1="201.9" x2="330.4" y2="282.6" stroke="#c53030" stroke-width="1.6"/>
<line x1="330.4" y1="282.6" x2="338.5" y2="222.0" stroke="#2f855a" stroke-width="1.6"/>
<line x1="338.5" y1="222.0" x2="346.5" y2="304.2" stroke="#c53030" stroke-width="1.6"/>
<line x1="346.5" y1="304.2" x2="354.6" y2="143.8" stroke="#2f855a" stroke-width="1.6"/>
<line x1="354.6" y1="143.8" x2="362.7" y2="252.0" stroke="#c53030" stroke-width="1.6"/>
<line x1="362.7" y1="252.0" x2="370.7" y2="198.7" stroke="#2f855a" stroke-width="1.6"/>
<line x1="370.7" y1="198.7" x2="378.8" y2="267.9" stroke="#c53030" stroke-width="1.6"/>
<line x1="378.8" y1="267.9" x2="386.9" y2="231.0" stroke="#2f855a" stroke-width="1.6"/>
<line x1="386.9" y1="231.0" x2="395.0" y2="288.0" stroke="#c53030" stroke-width="1.6"/>
<line x1="395.0" y1="288.0" x2="403.0" y2="215.1" stroke="#2f855a" stroke-width="1.6"/>
<line x1="403.0" y1="215.1" x2="411.1" y2="379.1" stroke="#c53030" stroke-width="1.6"/>
<line x1="411.1" y1="379.1" x2="419.2" y2="332.4" stroke="#2f855a" stroke-width="1.6"/>
<line x1="419.2" y1="332.4" x2="427.2" y2="420.4" stroke="#c53030" stroke-width="1.6"/>
<line x1="427.2" y1="420.4" x2="435.3" y2="348.4" stroke="#2f855a" stroke-width="1.6"/>
<line x1="435.3" y1="348.4" x2="443.4" y2="429.2" stroke="#c53030" stroke-width="1.6"/>
<line x1="443.4" y1="429.2" x2="451.5" y2="371.6" stroke="#2f855a" stroke-width="1.6"/>
<line x1="451.5" y1="371.6" x2="459.5" y2="401.9" stroke="#c53030" stroke-width="1.6"/>
<line x1="459.5" y1="401.9" x2="467.6" y2="345.4" stroke="#2f855a" stroke-width="1.6"/>
<line x1="467.6" y1="345.4" x2="475.7" y2="389.4" stroke="#c53030" stroke-width="1.6"/>
<line x1="475.7" y1="389.4" x2="483.7" y2="366.3" stroke="#2f855a" stroke-width="1.6"/>
<line x1="483.7" y1="366.3" x2="491.8" y2="397.3" stroke="#c53030" stroke-width="1.6"/>
<line x1="491.8" y1="397.3" x2="499.9" y2="356.5" stroke="#2f855a" stroke-width="1.6"/>
<line x1="499.9" y1="356.5" x2="508.0" y2="450.9" stroke="#c53030" stroke-width="1.6"/>
<line x1="508.0" y1="450.9" x2="516.0" y2="413.7" stroke="#2f855a" stroke-width="1.6"/>
<line x1="516.0" y1="413.7" x2="524.1" y2="443.5" stroke="#c53030" stroke-width="1.6"/>
<line x1="524.1" y1="443.5" x2="532.2" y2="419.1" stroke="#2f855a" stroke-width="1.6"/>
<line x1="532.2" y1="419.1" x2="540.3" y2="453.1" stroke="#c53030" stroke-width="1.6"/>
<line x1="540.3" y1="453.1" x2="548.3" y2="435.3" stroke="#2f855a" stroke-width="1.6"/>
<line x1="548.3" y1="435.3" x2="556.4" y2="457.7" stroke="#c53030" stroke-width="1.6"/>
<line x1="556.4" y1="457.7" x2="564.5" y2="447.8" stroke="#2f855a" stroke-width="1.6"/>
<line x1="564.5" y1="447.8" x2="572.5" y2="459.9" stroke="#c53030" stroke-width="1.6"/>
<line x1="572.5" y1="459.9" x2="580.6" y2="438.8" stroke="#2f855a" stroke-width="1.6"/>
<line x1="580.6" y1="438.8" x2="588.7" y2="451.5" stroke="#c53030" stroke-width="1.6"/>
<line x1="588.7" y1="451.5" x2="596.8" y2="399.6" stroke="#2f855a" stroke-width="1.6"/>
<line x1="596.8" y1="399.6" x2="604.8" y2="458.7" stroke="#c53030" stroke-width="1.6"/>
<line x1="604.8" y1="458.7" x2="612.9" y2="450.0" stroke="#2f855a" stroke-width="1.6"/>
<line x1="612.9" y1="450.0" x2="621.0" y2="459.8" stroke="#c53030" stroke-width="1.6"/>
<line x1="621.0" y1="459.8" x2="629.0" y2="451.5" stroke="#2f855a" stroke-width="1.6"/>
<line x1="629.0" y1="451.5" x2="637.1" y2="459.6" stroke="#c53030" stroke-width="1.6"/>
<line x1="637.1" y1="459.6" x2="645.2" y2="443.0" stroke="#2f855a" stroke-width="1.6"/>
<line x1="645.2" y1="443.0" x2="653.3" y2="474.5" stroke="#c53030" stroke-width="1.6"/>
<line x1="653.3" y1="474.5" x2="661.3" y2="464.5" stroke="#2f855a" stroke-width="1.6"/>
<line x1="661.3" y1="464.5" x2="669.4" y2="482.2" stroke="#c53030" stroke-width="1.6"/>
<line x1="669.4" y1="482.2" x2="677.5" y2="466.2" stroke="#2f855a" stroke-width="1.6"/>
<line x1="677.5" y1="466.2" x2="685.5" y2="478.7" stroke="#c53030" stroke-width="1.6"/>
<line x1="685.5" y1="478.7" x2="693.6" y2="472.8" stroke="#2f855a" stroke-width="1.6"/>
<line x1="693.6" y1="472.8" x2="701.7" y2="482.0" stroke="#c53030" stroke-width="1.6"/>
<line x1="701.7" y1="482.0" x2="709.8" y2="455.3" stroke="#2f855a" stroke-width="1.6"/>
<line x1="709.8" y1="455.3" x2="717.8" y2="477.8" stroke="#c53030" stroke-width="1.6"/>
<line x1="717.8" y1="477.8" x2="725.9" y2="470.7" stroke="#2f855a" stroke-width="1.6"/>
<line x1="725.9" y1="470.7" x2="734.0" y2="479.6" stroke="#c53030" stroke-width="1.6"/>
<line x1="734.0" y1="479.6" x2="742.1" y2="472.2" stroke="#2f855a" stroke-width="1.6"/>
<line x1="742.1" y1="472.2" x2="750.1" y2="479.0" stroke="#c53030" stroke-width="1.6"/>
<line x1="750.1" y1="479.0" x2="758.2" y2="469.8" stroke="#2f855a" stroke-width="1.6"/>
<line x1="758.2" y1="469.8" x2="766.3" y2="486.1" stroke="#c53030" stroke-width="1.6"/>
<line x1="766.3" y1="486.1" x2="774.3" y2="476.7" stroke="#2f855a" stroke-width="1.6"/>
<line x1="774.3" y1="476.7" x2="782.4" y2="483.9" stroke="#c53030" stroke-width="1.6"/>
<line x1="782.4" y1="483.9" x2="790.5" y2="480.1" stroke="#2f855a" stroke-width="1.6"/>
<line x1="790.5" y1="480.1" x2="798.6" y2="484.0" stroke="#c53030" stroke-width="1.6"/>
<line x1="798.6" y1="484.0" x2="806.6" y2="471.7" stroke="#2f855a" stroke-width="1.6"/>
<line x1="806.6" y1="471.7" x2="814.7" y2="477.2" stroke="#c53030" stroke-width="1.6"/>
<line x1="814.7" y1="477.2" x2="822.8" y2="461.0" stroke="#2f855a" stroke-width="1.6"/>
<line x1="822.8" y1="461.0" x2="830.8" y2="469.1" stroke="#c53030" stroke-width="1.6"/>
<line x1="830.8" y1="469.1" x2="838.9" y2="453.2" stroke="#2f855a" stroke-width="1.6"/>
<line x1="838.9" y1="453.2" x2="847.0" y2="464.6" stroke="#c53030" stroke-width="1.6"/>
<line x1="847.0" y1="464.6" x2="855.1" y2="456.4" stroke="#2f855a" stroke-width="1.6"/>
<line x1="855.1" y1="456.4" x2="863.1" y2="474.8" stroke="#c53030" stroke-width="1.6"/>
<line x1="863.1" y1="474.8" x2="871.2" y2="467.9" stroke="#2f855a" stroke-width="1.6"/>
<line x1="871.2" y1="467.9" x2="879.3" y2="477.1" stroke="#c53030" stroke-width="1.6"/>
<line x1="879.3" y1="477.1" x2="887.4" y2="470.4" stroke="#2f855a" stroke-width="1.6"/>
<line x1="887.4" y1="470.4" x2="895.4" y2="476.9" stroke="#c53030" stroke-width="1.6"/>
<line x1="895.4" y1="476.9" x2="903.5" y2="465.1" stroke="#2f855a" stroke-width="1.6"/>
<line x1="903.5" y1="465.1" x2="911.6" y2="471.1" stroke="#c53030" stroke-width="1.6"/>
<line x1="911.6" y1="471.1" x2="919.6" y2="459.9" stroke="#2f855a" stroke-width="1.6"/>
<line x1="919.6" y1="459.9" x2="927.7" y2="468.6" stroke="#c53030" stroke-width="1.6"/>
<line x1="927.7" y1="468.6" x2="935.8" y2="462.7" stroke="#2f855a" stroke-width="1.6"/>
<line x1="935.8" y1="462.7" x2="943.9" y2="472.3" stroke="#c53030" stroke-width="1.6"/>
<line x1="943.9" y1="472.3" x2="951.9" y2="464.7" stroke="#2f855a" stroke-width="1.6"/>
<line x1="951.9" y1="464.7" x2="960.0" y2="475.3" stroke="#c53030" stroke-width="1.6"/>
<circle cx="64.0" cy="451.0" r="2.2" fill="#475569"/>
<circle cx="72.1" cy="469.0" r="2.2" fill="#475569"/>
<circle cx="80.1" cy="452.0" r="2.2" fill="#475569"/>
<circle cx="88.2" cy="467.5" r="2.2" fill="#475569"/>
<circle cx="96.3" cy="449.5" r="2.2" fill="#475569"/>
<circle cx="104.4" cy="459.0" r="2.2" fill="#475569"/>
<circle cx="112.4" cy="436.0" r="2.2" fill="#475569"/>
<circle cx="120.5" cy="490.5" r="2.2" fill="#475569"/>
<circle cx="128.6" cy="479.6" r="2.2" fill="#475569"/>
<circle cx="136.6" cy="488.9" r="2.2" fill="#475569"/>
<circle cx="144.7" cy="484.0" r="2.2" fill="#475569"/>
<circle cx="152.8" cy="498.1" r="2.2" fill="#475569"/>
<circle cx="160.9" cy="489.7" r="2.2" fill="#475569"/>
<circle cx="168.9" cy="495.0" r="2.2" fill="#475569"/>
<circle cx="177.0" cy="473.9" r="2.2" fill="#475569"/>
<circle cx="185.1" cy="485.3" r="2.2" fill="#475569"/>
<circle cx="193.2" cy="468.8" r="2.2" fill="#475569"/>
<circle cx="201.2" cy="482.8" r="2.2" fill="#475569"/>
<circle cx="209.3" cy="471.8" r="2.2" fill="#475569"/>
<circle cx="217.4" cy="492.0" r="2.2" fill="#475569"/>
<circle cx="225.4" cy="479.7" r="2.2" fill="#475569"/>
<circle cx="233.5" cy="485.7" r="2.2" fill="#475569"/>
<circle cx="241.6" cy="397.9" r="2.2" fill="#475569"/>
<circle cx="249.7" cy="437.2" r="2.2" fill="#475569"/>
<circle cx="257.7" cy="367.6" r="2.2" fill="#475569"/>
<circle cx="265.8" cy="403.4" r="2.2" fill="#475569"/>
<circle cx="273.9" cy="149.9" r="2.2" fill="#475569"/>
<circle cx="281.9" cy="236.0" r="2.2" fill="#475569"/>
<circle cx="290.0" cy="130.2" r="2.2" fill="#475569"/>
<circle cx="298.1" cy="253.5" r="2.2" fill="#475569"/>
<circle cx="306.2" cy="65.9" r="2.2" fill="#475569"/>
<circle cx="314.2" cy="296.3" r="2.2" fill="#475569"/>
<circle cx="322.3" cy="201.9" r="2.2" fill="#475569"/>
<circle cx="330.4" cy="282.6" r="2.2" fill="#475569"/>
<circle cx="338.5" cy="222.0" r="2.2" fill="#475569"/>
<circle cx="346.5" cy="304.2" r="2.2" fill="#475569"/>
<circle cx="354.6" cy="143.8" r="2.2" fill="#475569"/>
<circle cx="362.7" cy="252.0" r="2.2" fill="#475569"/>
<circle cx="370.7" cy="198.7" r="2.2" fill="#475569"/>
<circle cx="378.8" cy="267.9" r="2.2" fill="#475569"/>
<circle cx="386.9" cy="231.0" r="2.2" fill="#475569"/>
<circle cx="395.0" cy="288.0" r="2.2" fill="#475569"/>
<circle cx="403.0" cy="215.1" r="2.2" fill="#475569"/>
<circle cx="411.1" cy="379.1" r="2.2" fill="#475569"/>
<circle cx="419.2" cy="332.4" r="2.2" fill="#475569"/>
<circle cx="427.2" cy="420.4" r="2.2" fill="#475569"/>
<circle cx="435.3" cy="348.4" r="2.2" fill="#475569"/>
<circle cx="443.4" cy="429.2" r="2.2" fill="#475569"/>
<circle cx="451.5" cy="371.6" r="2.2" fill="#475569"/>
<circle cx="459.5" cy="401.9" r="2.2" fill="#475569"/>
<circle cx="467.6" cy="345.4" r="2.2" fill="#475569"/>
<circle cx="475.7" cy="389.4" r="2.2" fill="#475569"/>
<circle cx="483.7" cy="366.3" r="2.2" fill="#475569"/>
<circle cx="491.8" cy="397.3" r="2.2" fill="#475569"/>
<circle cx="499.9" cy="356.5" r="2.2" fill="#475569"/>
<circle cx="508.0" cy="450.9" r="2.2" fill="#475569"/>
<circle cx="516.0" cy="413.7" r="2.2" fill="#475569"/>
<circle cx="524.1" cy="443.5" r="2.2" fill="#475569"/>
<circle cx="532.2" cy="419.1" r="2.2" fill="#475569"/>
<circle cx="540.3" cy="453.1" r="2.2" fill="#475569"/>
<circle cx="548.3" cy="435.3" r="2.2" fill="#475569"/>
<circle cx="556.4" cy="457.7" r="2.2" fill="#475569"/>
<circle cx="564.5" cy="447.8" r="2.2" fill="#475569"/>
<circle cx="572.5" cy="459.9" r="2.2" fill="#475569"/>
<circle cx="580.6" cy="438.8" r="2.2" fill="#475569"/>
<circle cx="588.7" cy="451.5" r="2.2" fill="#475569"/>
<circle cx="596.8" cy="399.6" r="2.2" fill="#475569"/>
<circle cx="604.8" cy="458.7" r="2.2" fill="#475569"/>
<circle cx="612.9" cy="450.0" r="2.2" fill="#475569"/>
<circle cx="621.0" cy="459.8" r="2.2" fill="#475569"/>
<circle cx="629.0" cy="451.5" r="2.2" fill="#475569"/>
<circle cx="637.1" cy="459.6" r="2.2" fill="#475569"/>
<circle cx="645.2" cy="443.0" r="2.2" fill="#475569"/>
<circle cx="653.3" cy="474.5" r="2.2" fill="#475569"/>
<circle cx="661.3" cy="464.5" r="2.2" fill="#475569"/>
<circle cx="669.4" cy="482.2" r="2.2" fill="#475569"/>
<circle cx="677.5" cy="466.2" r="2.2" fill="#475569"/>
<circle cx="685.5" cy="478.7" r="2.2" fill="#475569"/>
<circle cx="693.6" cy="472.8" r="2.2" fill="#475569"/>
<circle cx="701.7" cy="482.0" r="2.2" fill="#475569"/>
<circle cx="709.8" cy="455.3" r="2.2" fill="#475569"/>
<circle cx="717.8" cy="477.8" r="2.2" fill="#475569"/>
<circle cx="725.9" cy="470.7" r="2.2" fill="#475569"/>
<circle cx="734.0" cy="479.6" r="2.2" fill="#475569"/>
<circle cx="742.1" cy="472.2" r="2.2" fill="#475569"/>
<circle cx="750.1" cy="479.0" r="2.2" fill="#475569"/>
<circle cx="758.2" cy="469.8" r="2.2" fill="#475569"/>
<circle cx="766.3" cy="486.1" r="2.2" fill="#475569"/>
<circle cx="774.3" cy="476.7" r="2.2" fill="#475569"/>
<circle cx="782.4" cy="483.9" r="2.2" fill="#475569"/>
<circle cx="790.5" cy="480.1" r="2.2" fill="#475569"/>
<circle cx="798.6" cy="484.0" r="2.2" fill="#475569"/>
<circle cx="806.6" cy="471.7" r="2.2" fill="#475569"/>
<circle cx="814.7" cy="477.2" r="2.2" fill="#475569"/>
<circle cx="822.8" cy="461.0" r="2.2" fill="#475569"/>
<circle cx="830.8" cy="469.1" r="2.2" fill="#475569"/>
<circle cx="838.9" cy="453.2" r="2.2" fill="#475569"/>
<circle cx="847.0" cy="464.6" r="2.2" fill="#475569"/>
<circle cx="855.1" cy="456.4" r="2.2" fill="#475569"/>
<circle cx="863.1" cy="474.8" r="2.2" fill="#475569"/>
<circle cx="871.2" cy="467.9" r="2.2" fill="#475569"/>
<circle cx="879.3" cy="477.1" r="2.2" fill="#475569"/>
<circle cx="887.4" cy="470.4" r="2.2" fill="#475569"/>
<circle cx="895.4" cy="476.9" r="2.2" fill="#475569"/>
<circle cx="903.5" cy="465.1" r="2.2" fill="#475569"/>
<circle cx="911.6" cy="471.1" r="2.2" fill="#475569"/>
<circle cx="919.6" cy="459.9" r="2.2" fill="#475569"/>
<circle cx="927.7" cy="468.6" r="2.2" fill="#475569"/>
<circle cx="935.8" cy="462.7" r="2.2" fill="#475569"/>
<circle cx="943.9" cy="472.3" r="2.2" fill="#475569"/>
<circle cx="951.9" cy="464.7" r="2.2" fill="#475569"/>
<circle cx="960.0" cy="475.3" r="2.2" fill="#475569"/>
<line x1="64" y1="489.0" x2="960" y2="489.0" stroke="#2563eb" stroke-width="1.2" stroke-dasharray="3,4"/>
<text x="68" y="485.0" font-size="10" fill="#2563eb">target 2.57 (C = A from B extreme)</text>
<text x="64" y="24" font-size="16" font-weight="600" fill="#1a202c">NIO — Elliott Wave count — triangle_contract (up)</text>
<text x="64" y="550" font-size="11" fill="#718096">Degree 2 D in progress; within it, degree 1 (C) unfolding (zigzag)</text>
<text x="467.6" y="325.4" font-size="13" font-style="normal" fill="#1a202c" text-anchor="middle">A</text>
<text x="257.7" y="359.6" font-size="10" font-style="normal" fill="#718096" text-anchor="middle">(A)</text>
<text x="427.2" y="438.4" font-size="10" font-style="normal" fill="#718096" text-anchor="middle">(B)</text>
<text x="467.6" y="337.4" font-size="10" font-style="normal" fill="#718096" text-anchor="middle">(C)</text>
<text x="669.4" y="515.2" font-size="13" font-style="normal" fill="#1a202c" text-anchor="middle">B</text>
<text x="508.0" y="468.9" font-size="10" font-style="normal" fill="#718096" text-anchor="middle">(A)</text>
<text x="596.8" y="391.6" font-size="10" font-style="normal" fill="#718096" text-anchor="middle">(B)</text>
<text x="669.4" y="500.2" font-size="10" font-style="normal" fill="#718096" text-anchor="middle">(C)</text>
<text x="838.9" y="433.2" font-size="13" font-style="normal" fill="#1a202c" text-anchor="middle">C</text>
<text x="709.8" y="447.3" font-size="10" font-style="normal" fill="#718096" text-anchor="middle">(A)</text>
<text x="734.0" y="497.6" font-size="10" font-style="normal" fill="#718096" text-anchor="middle">(B)</text>
<text x="838.9" y="445.2" font-size="10" font-style="normal" fill="#718096" text-anchor="middle">(C)</text>
<text x="960.0" y="508.3" font-size="13" font-style="italic" fill="#1a202c" text-anchor="middle">D</text>
<text x="879.3" y="495.1" font-size="10" font-style="normal" fill="#718096" text-anchor="middle">(A)</text>
<text x="903.5" y="457.1" font-size="10" font-style="normal" fill="#718096" text-anchor="middle">(B)</text>
<text x="960.0" y="493.3" font-size="10" font-style="italic" fill="#718096" text-anchor="middle">(C)</text>
</svg>