<svg xmlns="http://www.w3.org/2000/svg" viewBox="0 0 1000 560" font-family="system-ui,-apple-system,sans-serif">
<rect width="1000" height="560" fill="white"/>
<line x1="64" y1="524.0" x2="960" y2="524.0" stroke="#e2e8f0" stroke-width="1"/>
<text x="966" y="528.0" font-size="11" fill="#718096">54.18</text>
<line x1="64" y1="403.0" x2="960" y2="403.0" stroke="#e2e8f0" stroke-width="1"/>
<text x="966" y="407.0" font-size="11" fill="#718096">75.29</text>
<line x1="64" y1="282.0" x2="960" y2="282.0" stroke="#e2e8f0" stroke-width="1"/>
<text x="966" y="286.0" font-size="11" fill="#718096">96.41</text>
<line x1="64" y1="161.0" x2="960" y2="161.0" stroke="#e2e8f0" stroke-width="1"/>
<text x="966" y="165.0" font-size="11" fill="#718096">117.52</text>
<line x1="64" y1="40.0" x2="960" y2="40.0" stroke="#e2e8f0" stroke-width="1"/>
<text x="966" y="44.0" font-size="11" fill="#718096">138.64</text>
<line x1="64.0" y1="498.1" x2="72.1" y2="426.8" stroke="#2f855a" stroke-width="1.6"/>
<line x1="72.1" y1="426.8" x2="80.3" y2="445.6" stroke="#c53030" stroke-width="1.6"/>
<line x1="80.3" y1="445.6" x2="88.4" y2="428.8" stroke="#2f855a" stroke-width="1.6"/>
<line x1="88.4" y1="428.8" x2="96.6" y2="446.5" stroke="#c53030" stroke-width="1.6"/>
<line x1="96.6" y1="446.5" x2="104.7" y2="431.1" stroke="#2f855a" stroke-width="1.6"/>
<line x1="104.7" y1="431.1" x2="112.9" y2="455.8" stroke="#c53030" stroke-width="1.6"/>
<line x1="112.9" y1="455.8" x2="121.0" y2="418.9" stroke="#2f855a" stroke-width="1.6"/>
<line x1="121.0" y1="418.9" x2="129.2" y2="434.1" stroke="#c53030" stroke-width="1.6"/>
<line x1="129.2" y1="434.1" x2="137.3" y2="421.3" stroke="#2f855a" stroke-width="1.6"/>
<line x1="137.3" y1="421.3" x2="145.5" y2="435.4" stroke="#c53030" stroke-width="1.6"/>
<line x1="145.5" y1="435.4" x2="153.6" y2="412.7" stroke="#2f855a" stroke-width="1.6"/>
<line x1="153.6" y1="412.7" x2="161.7" y2="446.0" stroke="#c53030" stroke-width="1.6"/>
<line x1="161.7" y1="446.0" x2="169.9" y2="391.5" stroke="#2f855a" stroke-width="1.6"/>
<line x1="169.9" y1="391.5" x2="178.0" y2="408.0" stroke="#c53030" stroke-width="1.6"/>
<line x1="178.0" y1="408.0" x2="186.2" y2="394.1" stroke="#2f855a" stroke-width="1.6"/>
<line x1="186.2" y1="394.1" x2="194.3" y2="406.0" stroke="#c53030" stroke-width="1.6"/>
<line x1="194.3" y1="406.0" x2="202.5" y2="352.5" stroke="#2f855a" stroke-width="1.6"/>
<line x1="202.5" y1="352.5" x2="210.6" y2="370.7" stroke="#c53030" stroke-width="1.6"/>
<line x1="210.6" y1="370.7" x2="218.8" y2="314.1" stroke="#2f855a" stroke-width="1.6"/>
<line x1="218.8" y1="314.1" x2="226.9" y2="342.3" stroke="#c53030" stroke-width="1.6"/>
<line x1="226.9" y1="342.3" x2="235.1" y2="298.5" stroke="#2f855a" stroke-width="1.6"/>
<line x1="235.1" y1="298.5" x2="243.2" y2="317.2" stroke="#c53030" stroke-width="1.6"/>
<line x1="243.2" y1="317.2" x2="251.3" y2="294.8" stroke="#2f855a" stroke-width="1.6"/>
<line x1="251.3" y1="294.8" x2="259.5" y2="326.4" stroke="#c53030" stroke-width="1.6"/>
<line x1="259.5" y1="326.4" x2="267.6" y2="298.2" stroke="#2f855a" stroke-width="1.6"/>
<line x1="267.6" y1="298.2" x2="275.8" y2="362.6" stroke="#c53030" stroke-width="1.6"/>
<line x1="275.8" y1="362.6" x2="283.9" y2="262.0" stroke="#2f855a" stroke-width="1.6"/>
<line x1="283.9" y1="262.0" x2="292.1" y2="287.8" stroke="#c53030" stroke-width="1.6"/>
<line x1="292.1" y1="287.8" x2="300.2" y2="242.6" stroke="#2f855a" stroke-width="1.6"/>
<line x1="300.2" y1="242.6" x2="308.4" y2="262.4" stroke="#c53030" stroke-width="1.6"/>
<line x1="308.4" y1="262.4" x2="316.5" y2="224.5" stroke="#2f855a" stroke-width="1.6"/>
<line x1="316.5" y1="224.5" x2="324.7" y2="287.2" stroke="#c53030" stroke-width="1.6"/>
<line x1="324.7" y1="287.2" x2="332.8" y2="260.9" stroke="#2f855a" stroke-width="1.6"/>
<line x1="332.8" y1="260.9" x2="340.9" y2="285.4" stroke="#c53030" stroke-width="1.6"/>
<line x1="340.9" y1="285.4" x2="349.1" y2="264.3" stroke="#2f855a" stroke-width="1.6"/>
<line x1="349.1" y1="264.3" x2="357.2" y2="291.1" stroke="#c53030" stroke-width="1.6"/>
<line x1="357.2" y1="291.1" x2="365.4" y2="263.9" stroke="#2f855a" stroke-width="1.6"/>
<line x1="365.4" y1="263.9" x2="373.5" y2="344.8" stroke="#c53030" stroke-width="1.6"/>
<line x1="373.5" y1="344.8" x2="381.7" y2="280.0" stroke="#2f855a" stroke-width="1.6"/>
<line x1="381.7" y1="280.0" x2="389.8" y2="309.4" stroke="#c53030" stroke-width="1.6"/>
<line x1="389.8" y1="309.4" x2="398.0" y2="262.2" stroke="#2f855a" stroke-width="1.6"/>
<line x1="398.0" y1="262.2" x2="406.1" y2="318.4" stroke="#c53030" stroke-width="1.6"/>
<line x1="406.1" y1="318.4" x2="414.3" y2="290.3" stroke="#2f855a" stroke-width="1.6"/>
<line x1="414.3" y1="290.3" x2="422.4" y2="363.9" stroke="#c53030" stroke-width="1.6"/>
<line x1="422.4" y1="363.9" x2="430.5" y2="289.3" stroke="#2f855a" stroke-width="1.6"/>
<line x1="430.5" y1="289.3" x2="438.7" y2="322.2" stroke="#c53030" stroke-width="1.6"/>
<line x1="438.7" y1="322.2" x2="446.8" y2="170.1" stroke="#2f855a" stroke-width="1.6"/>
<line x1="446.8" y1="170.1" x2="455.0" y2="200.1" stroke="#c53030" stroke-width="1.6"/>
<line x1="455.0" y1="200.1" x2="463.1" y2="167.4" stroke="#2f855a" stroke-width="1.6"/>
<line x1="463.1" y1="167.4" x2="471.3" y2="202.4" stroke="#c53030" stroke-width="1.6"/>
<line x1="471.3" y1="202.4" x2="479.4" y2="137.7" stroke="#2f855a" stroke-width="1.6"/>
<line x1="479.4" y1="137.7" x2="487.6" y2="160.4" stroke="#c53030" stroke-width="1.6"/>
<line x1="487.6" y1="160.4" x2="495.7" y2="110.8" stroke="#2f855a" stroke-width="1.6"/>
<line x1="495.7" y1="110.8" x2="503.9" y2="157.9" stroke="#c53030" stroke-width="1.6"/>
<line x1="503.9" y1="157.9" x2="512.0" y2="65.9" stroke="#2f855a" stroke-width="1.6"/>
<line x1="512.0" y1="65.9" x2="520.1" y2="128.9" stroke="#c53030" stroke-width="1.6"/>
<line x1="520.1" y1="128.9" x2="528.3" y2="102.4" stroke="#2f855a" stroke-width="1.6"/>
<line x1="528.3" y1="102.4" x2="536.4" y2="178.5" stroke="#c53030" stroke-width="1.6"/>
<line x1="536.4" y1="178.5" x2="544.6" y2="117.5" stroke="#2f855a" stroke-width="1.6"/>
<line x1="544.6" y1="117.5" x2="552.7" y2="150.9" stroke="#c53030" stroke-width="1.6"/>
<line x1="552.7" y1="150.9" x2="560.9" y2="125.1" stroke="#2f855a" stroke-width="1.6"/>
<line x1="560.9" y1="125.1" x2="569.0" y2="156.7" stroke="#c53030" stroke-width="1.6"/>
<line x1="569.0" y1="156.7" x2="577.2" y2="108.4" stroke="#2f855a" stroke-width="1.6"/>
<line x1="577.2" y1="108.4" x2="585.3" y2="128.5" stroke="#c53030" stroke-width="1.6"/>
<line x1="585.3" y1="128.5" x2="593.5" y2="108.4" stroke="#2f855a" stroke-width="1.6"/>
<line x1="593.5" y1="108.4" x2="601.6" y2="162.2" stroke="#c53030" stroke-width="1.6"/>
<line x1="601.6" y1="162.2" x2="609.7" y2="127.4" stroke="#2f855a" stroke-width="1.6"/>
<line x1="609.7" y1="127.4" x2="617.9" y2="184.6" stroke="#c53030" stroke-width="1.6"/>
<line x1="617.9" y1="184.6" x2="626.0" y2="119.9" stroke="#2f855a" stroke-width="1.6"/>
<line x1="626.0" y1="119.9" x2="634.2" y2="160.6" stroke="#c53030" stroke-width="1.6"/>
<line x1="634.2" y1="160.6" x2="642.3" y2="119.0" stroke="#2f855a" stroke-width="1.6"/>
<line x1="642.3" y1="119.0" x2="650.5" y2="211.4" stroke="#c53030" stroke-width="1.6"/>
<line x1="650.5" y1="211.4" x2="658.6" y2="184.1" stroke="#2f855a" stroke-width="1.6"/>
<line x1="658.6" y1="184.1" x2="666.8" y2="219.4" stroke="#c53030" stroke-width="1.6"/>
<line x1="666.8" y1="219.4" x2="674.9" y2="165.5" stroke="#2f855a" stroke-width="1.6"/>
<line x1="674.9" y1="165.5" x2="683.1" y2="242.4" stroke="#c53030" stroke-width="1.6"/>
<line x1="683.1" y1="242.4" x2="691.2" y2="205.7" stroke="#2f855a" stroke-width="1.6"/>
<line x1="691.2" y1="205.7" x2="699.3" y2="305.3" stroke="#c53030" stroke-width="1.6"/>
<line x1="699.3" y1="305.3" x2="707.5" y2="276.7" stroke="#2f855a" stroke-width="1.6"/>
<line x1="707.5" y1="276.7" x2="715.6" y2="311.1" stroke="#c53030" stroke-width="1.6"/>
<line x1="715.6" y1="311.1" x2="723.8" y2="290.2" stroke="#2f855a" stroke-width="1.6"/>
<line x1="723.8" y1="290.2" x2="731.9" y2="328.4" stroke="#c53030" stroke-width="1.6"/>
<line x1="731.9" y1="328.4" x2="740.1" y2="309.7" stroke="#2f855a" stroke-width="1.6"/>
<line x1="740.1" y1="309.7" x2="748.2" y2="365.0" stroke="#c53030" stroke-width="1.6"/>
<line x1="748.2" y1="365.0" x2="756.4" y2="336.3" stroke="#2f855a" stroke-width="1.6"/>
<line x1="756.4" y1="336.3" x2="764.5" y2="362.6" stroke="#c53030" stroke-width="1.6"/>
<line x1="764.5" y1="362.6" x2="772.7" y2="345.8" stroke="#2f855a" stroke-width="1.6"/>
<line x1="772.7" y1="345.8" x2="780.8" y2="380.4" stroke="#c53030" stroke-width="1.6"/>
<line x1="780.8" y1="380.4" x2="788.9" y2="357.1" stroke="#2f855a" stroke-width="1.6"/>
<line x1="788.9" y1="357.1" x2="797.1" y2="376.8" stroke="#c53030" stroke-width="1.6"/>
<line x1="797.1" y1="376.8" x2="805.2" y2="349.3" stroke="#2f855a" stroke-width="1.6"/>
<line x1="805.2" y1="349.3" x2="813.4" y2="403.4" stroke="#c53030" stroke-width="1.6"/>
<line x1="813.4" y1="403.4" x2="821.5" y2="382.6" stroke="#2f855a" stroke-width="1.6"/>
<line x1="821.5" y1="382.6" x2="829.7" y2="404.6" stroke="#c53030" stroke-width="1.6"/>
<line x1="829.7" y1="404.6" x2="837.8" y2="260.3" stroke="#2f855a" stroke-width="1.6"/>
<line x1="837.8" y1="260.3" x2="846.0" y2="314.8" stroke="#c53030" stroke-width="1.6"/>
<line x1="846.0" y1="314.8" x2="854.1" y2="285.1" stroke="#2f855a" stroke-width="1.6"/>
<line x1="854.1" y1="285.1" x2="862.3" y2="306.0" stroke="#c53030" stroke-width="1.6"/>
<line x1="862.3" y1="306.0" x2="870.4" y2="246.0" stroke="#2f855a" stroke-width="1.6"/>
<line x1="870.4" y1="246.0" x2="878.5" y2="276.1" stroke="#c53030" stroke-width="1.6"/>
<line x1="878.5" y1="276.1" x2="886.7" y2="210.1" stroke="#2f855a" stroke-width="1.6"/>
<line x1="886.7" y1="210.1" x2="894.8" y2="318.6" stroke="#c53030" stroke-width="1.6"/>
<line x1="894.8" y1="318.6" x2="903.0" y2="291.8" stroke="#2f855a" stroke-width="1.6"/>
<line x1="903.0" y1="291.8" x2="911.1" y2="346.8" stroke="#c53030" stroke-width="1.6"/>
<line x1="911.1" y1="346.8" x2="919.3" y2="310.2" stroke="#2f855a" stroke-width="1.6"/>
<line x1="919.3" y1="310.2" x2="927.4" y2="428.4" stroke="#c53030" stroke-width="1.6"/>
<line x1="927.4" y1="428.4" x2="935.6" y2="398.6" stroke="#2f855a" stroke-width="1.6"/>
<line x1="935.6" y1="398.6" x2="943.7" y2="427.6" stroke="#c53030" stroke-width="1.6"/>
<line x1="943.7" y1="427.6" x2="951.9" y2="385.0" stroke="#2f855a" stroke-width="1.6"/>
<line x1="951.9" y1="385.0" x2="960.0" y2="461.5" stroke="#c53030" stroke-width="1.6"/>
<circle cx="64.0" cy="498.1" r="2.2" fill="#475569"/>
<circle cx="72.1" cy="426.8" r="2.2" fill="#475569"/>
<circle cx="80.3" cy="445.6" r="2.2" fill="#475569"/>
<circle cx="88.4" cy="428.8" r="2.2" fill="#475569"/>
<circle cx="96.6" cy="446.5" r="2.2" fill="#475569"/>
<circle cx="104.7" cy="431.1" r="2.2" fill="#475569"/>
<circle cx="112.9" cy="455.8" r="2.2" fill="#475569"/>
<circle cx="121.0" cy="418.9" r="2.2" fill="#475569"/>
<circle cx="129.2" cy="434.1" r="2.2" fill="#475569"/>
<circle cx="137.3" cy="421.3" r="2.2" fill="#475569"/>
<circle cx="145.5" cy="435.4" r="2.2" fill="#475569"/>
<circle cx="153.6" cy="412.7" r="2.2" fill="#475569"/>
<circle cx="161.7" cy="446.0" r="2.2" fill="#475569"/>
<circle cx="169.9" cy="391.5" r="2.2" fill="#475569"/>
<circle cx="178.0" cy="408.0" r="2.2" fill="#475569"/>
<circle cx="186.2" cy="394.1" r="2.2" fill="#475569"/>
<circle cx="194.3" cy="406.0" r="2.2" fill="#475569"/>
<circle cx="202.5" cy="352.5" r="2.2" fill="#475569"/>
<circle cx="210.6" cy="370.7" r="2.2" fill="#475569"/>
<circle cx="218.8" cy="314.1" r="2.2" fill="#475569"/>
<circle cx="226.9" cy="342.3" r="2.2" fill="#475569"/>
<circle cx="235.1" cy="298.5" r="2.2" fill="#475569"/>
<circle cx="243.2" cy="317.2" r="2.2" fill="#475569"/>
<circle cx="251.3" cy="294.8" r="2.2" fill="#475569"/>
<circle cx="259.5" cy="326.4" r="2.2" fill="#475569"/>
<circle cx="267.6" cy="298.2" r="2.2" fill="#475569"/>
<circle cx="275.8" cy="362.6" r="2.2" fill="#475569"/>
<circle cx="283.9" cy="262.0" r="2.2" fill="#475569"/>
<circle cx="292.1" cy="287.8" r="2.2" fill="#475569"/>
<circle cx="300.2" cy="242.6" r="2.2" fill="#475569"/>
<circle cx="308.4" cy="262.4" r="2.2" fill="#475569"/>
<circle cx="316.5" cy="224.5" r="2.2" fill="#475569"/>
<circle cx="324.7" cy="287.2" r="2.2" fill="#475569"/>
<circle cx="332.8" cy="260.9" r="2.2" fill="#475569"/>
<circle cx="340.9" cy="285.4" r="2.2" fill="#475569"/>
<circle cx="349.1" cy="264.3" r="2.2" fill="#475569"/>
<circle cx="357.2" cy="291.1" r="2.2" fill="#475569"/>
<circle cx="365.4" cy="263.9" r="2.2" fill="#475569"/>
<circle cx="373.5" cy="344.8" r="2.2" fill="#475569"/>
<circle cx="381.7" cy="280.0" r="2.2" fill="#475569"/>
<circle cx="389.8" cy="309.4" r="2.2" fill="#475569"/>
<circle cx="398.0" cy="262.2" r="2.2" fill="#475569"/>
<circle cx="406.1" cy="318.4" r="2.2" fill="#475569"/>
<circle cx="414.3" cy="290.3" r="2.2" fill="#475569"/>
<circle cx="422.4" cy="363.9" r="2.2" fill="#475569"/>
<circle cx="430.5" cy="289.3" r="2.2" fill="#475569"/>
<circle cx="438.7" cy="322.2" r="2.2" fill="#475569"/>
<circle cx="446.8" cy="170.1" r="2.2" fill="#475569"/>
<circle cx="455.0" cy="200.1" r="2.2" fill="#475569"/>
<circle cx="463.1" cy="167.4" r="2.2" fill="#475569"/>
<circle cx="471.3" cy="202.4" r="2.2" fill="#475569"/>
<circle cx="479.4" cy="137.7" r="2.2" fill="#475569"/>
<circle cx="487.6" cy="160.4" r="2.2" fill="#475569"/>
<circle cx="495.7" cy="110.8" r="2.2" fill="#475569"/>
<circle cx="503.9" cy="157.9" r="2.2" fill="#475569"/>
<circle cx="512.0" cy="65.9" r="2.2" fill="#475569"/>
<circle cx="520.1" cy="128.9" r="2.2" fill="#475569"/>
<circle cx="528.3" cy="102.4" r="2.2" fill="#475569"/>
<circle cx="536.4" cy="178.5" r="2.2" fill="#475569"/>
<circle cx="544.6" cy="117.5" r="2.2" fill="#475569"/>
<circle cx="552.7" cy="150.9" r="2.2" fill="#475569"/>
<circle cx="560.9" cy="125.1" r="2.2" fill="#475569"/>
<circle cx="569.0" cy="156.7" r="2.2" fill="#475569"/>
<circle cx="577.2" cy="108.4" r="2.2" fill="#475569"/>
<circle cx="585.3" cy="128.5" r="2.2" fill="#475569"/>
<circle cx="593.5" cy="108.4" r="2.2" fill="#475569"/>
<circle cx="601.6" cy="162.2" r="2.2" fill="#475569"/>
<circle cx="609.7" cy="127.4" r="2.2" fill="#475569"/>
<circle cx="617.9" cy="184.6" r="2.2" fill="#475569"/>
<circle cx="626.0" cy="119.9" r="2.2" fill="#475569"/>
<circle cx="634.2" cy="160.6" r="2.2" fill="#475569"/>
<circle cx="642.3" cy="119.0" r="2.2" fill="#475569"/>
<circle cx="650.5" cy="211.4" r="2.2" fill="#475569"/>
<circle cx="658.6" cy="184.1" r="2.2" fill="#475569"/>
<circle cx="666.8" cy="219.4" r="2.2" fill="#475569"/>
<circle cx="674.9" cy="165.5" r="2.2" fill="#475569"/>
<circle cx="683.1" cy="242.4" r="2.2" fill="#475569"/>
<circle cx="691.2" cy="205.7" r="2.2" fill="#475569"/>
<circle cx="699.3" cy="305.3" r="2.2" fill="#475569"/>
<circle cx="707.5" cy="276.7" r="2.2" fill="#475569"/>
<circle cx="715.6" cy="311.1" r="2.2" fill="#475569"/>
<circle cx="723.8" cy="290.2" r="2.2" fill="#475569"/>
<circle cx="731.9" cy="328.4" r="2.2" fill="#475569"/>
<circle cx="740.1" cy="309.7" r="2.2" fill="#475569"/>
<circle cx="748.2" cy="365.0" r="2.2" fill="#475569"/>
<circle cx="756.4" cy="336.3" r="2.2" fill="#475569"/>
<circle cx="764.5" cy="362.6" r="2.2" fill="#475569"/>
<circle cx="772.7" cy="345.8" r="2.2" fill="#475569"/>
<circle cx="780.8" cy="380.4" r="2.2" fill="#475569"/>
<circle cx="788.9" cy="357.1" r="2.2" fill="#475569"/>
<circle cx="797.1" cy="376.8" r="2.2" fill="#475569"/>
<circle cx="805.2" cy="349.3" r="2.2" fill="#475569"/>
<circle cx="813.4" cy="403.4" r="2.2" fill="#475569"/>
<circle cx="821.5" cy="382.6" r="2.2" fill="#475569"/>
<circle cx="829.7" cy="404.6" r="2.2" fill="#475569"/>
<circle cx="837.8" cy="260.3" r="2.2" fill="#475569"/>
<circle cx="846.0" cy="314.8" r="2.2" fill="#475569"/>
<circle cx="854.1" cy="285.1" r="2.2" fill="#475569"/>
<circle cx="862.3" cy="306.0" r="2.2" fill="#475569"/>
<circle cx="870.4" cy="246.0" r="2.2" fill="#475569"/>
<circle cx="878.5" cy="276.1" r="2.2" fill="#475569"/>
<circle cx="886.7" cy="210.1" r="2.2" fill="#475569"/>
<circle cx="894.8" cy="318.6" r="2.2" fill="#475569"/>
<circle cx="903.0" cy="291.8" r="2.2" fill="#475569"/>
<circle cx="911.1" cy="346.8" r="2.2" fill="#475569"/>
<circle cx="919.3" cy="310.2" r="2.2" fill="#475569"/>
<circle cx="927.4" cy="428.4" r="2.2" fill="#475569"/>
<circle cx="935.6" cy="398.6" r="2.2" fill="#475569"/>
<circle cx="943.7" cy="427.6" r="2.2" fill="#475569"/>
<circle cx="951.9" cy="385.0" r="2.2" fill="#475569"/>
<circle cx="960.0" cy="461.5" r="2.2" fill="#475569"/>
<text x="64" y="24" font-size="16" font-weight="600" fill="#1a202c">NFLX — Elliott Wave count</text>
</svg>