<svg xmlns="http://www.w3.org/2000/svg" viewBox="0 0 1000 560" font-family="system-ui,-apple-system,sans-serif">
<rect width="1000" height="560" fill="white"/>
<line x1="64" y1="524.0" x2="960" y2="524.0" stroke="#e2e8f0" stroke-width="1"/>
<text x="966" y="528.0" font-size="11" fill="#718096">-23.04</text>
<line x1="64" y1="403.0" x2="960" y2="403.0" stroke="#e2e8f0" stroke-width="1"/>
<text x="966" y="407.0" font-size="11" fill="#718096">126.48</text>
<line x1="64" y1="282.0" x2="960" y2="282.0" stroke="#e2e8f0" stroke-width="1"/>
<text x="966" y="286.0" font-size="11" fill="#718096">276.00</text>
<line x1="64" y1="161.0" x2="960" y2="161.0" stroke="#e2e8f0" stroke-width="1"/>
<text x="966" y="165.0" font-size="11" fill="#718096">425.52</text>
<line x1="64" y1="40.0" x2="960" y2="40.0" stroke="#e2e8f0" stroke-width="1"/>
<text x="966" y="44.0" font-size="11" fill="#718096">575.04</text>
<line x1="64.0" y1="492.2" x2="72.3" y2="490.9" stroke="#2f855a" stroke-width="1.6"/>
<line x1="72.3" y1="490.9" x2="80.6" y2="491.9" stroke="#c53030" stroke-width="1.6"/>
<line x1="80.6" y1="491.9" x2="88.9" y2="488.6" stroke="#2f855a" stroke-width="1.6"/>
<line x1="88.9" y1="488.6" x2="97.2" y2="491.0" stroke="#c53030" stroke-width="1.6"/>
<line x1="97.2" y1="491.0" x2="105.5" y2="489.5" stroke="#2f855a" stroke-width="1.6"/>
<line x1="105.5" y1="489.5" x2="113.8" y2="495.4" stroke="#c53030" stroke-width="1.6"/>
<line x1="113.8" y1="495.4" x2="122.1" y2="494.6" stroke="#2f855a" stroke-width="1.6"/>
<line x1="122.1" y1="494.6" x2="130.4" y2="495.4" stroke="#c53030" stroke-width="1.6"/>
<line x1="130.4" y1="495.4" x2="138.7" y2="493.8" stroke="#2f855a" stroke-width="1.6"/>
<line x1="138.7" y1="493.8" x2="147.0" y2="494.9" stroke="#c53030" stroke-width="1.6"/>
<line x1="147.0" y1="494.9" x2="155.3" y2="493.9" stroke="#2f855a" stroke-width="1.6"/>
<line x1="155.3" y1="493.9" x2="163.6" y2="495.5" stroke="#c53030" stroke-width="1.6"/>
<line x1="163.6" y1="495.5" x2="171.9" y2="494.3" stroke="#2f855a" stroke-width="1.6"/>
<line x1="171.9" y1="494.3" x2="180.1" y2="495.4" stroke="#c53030" stroke-width="1.6"/>
<line x1="180.1" y1="495.4" x2="188.4" y2="494.3" stroke="#2f855a" stroke-width="1.6"/>
<line x1="188.4" y1="494.3" x2="196.7" y2="495.3" stroke="#c53030" stroke-width="1.6"/>
<line x1="196.7" y1="495.3" x2="205.0" y2="494.1" stroke="#2f855a" stroke-width="1.6"/>
<line x1="205.0" y1="494.1" x2="213.3" y2="495.1" stroke="#c53030" stroke-width="1.6"/>
<line x1="213.3" y1="495.1" x2="221.6" y2="493.1" stroke="#2f855a" stroke-width="1.6"/>
<line x1="221.6" y1="493.1" x2="229.9" y2="495.6" stroke="#c53030" stroke-width="1.6"/>
<line x1="229.9" y1="495.6" x2="238.2" y2="494.5" stroke="#2f855a" stroke-width="1.6"/>
<line x1="238.2" y1="494.5" x2="246.5" y2="496.0" stroke="#c53030" stroke-width="1.6"/>
<line x1="246.5" y1="496.0" x2="254.8" y2="494.0" stroke="#2f855a" stroke-width="1.6"/>
<line x1="254.8" y1="494.0" x2="263.1" y2="495.2" stroke="#c53030" stroke-width="1.6"/>
<line x1="263.1" y1="495.2" x2="271.4" y2="493.4" stroke="#2f855a" stroke-width="1.6"/>
<line x1="271.4" y1="493.4" x2="279.7" y2="494.4" stroke="#c53030" stroke-width="1.6"/>
<line x1="279.7" y1="494.4" x2="288.0" y2="493.0" stroke="#2f855a" stroke-width="1.6"/>
<line x1="288.0" y1="493.0" x2="296.3" y2="494.8" stroke="#c53030" stroke-width="1.6"/>
<line x1="296.3" y1="494.8" x2="304.6" y2="493.2" stroke="#2f855a" stroke-width="1.6"/>
<line x1="304.6" y1="493.2" x2="312.9" y2="495.6" stroke="#c53030" stroke-width="1.6"/>
<line x1="312.9" y1="495.6" x2="321.2" y2="492.9" stroke="#2f855a" stroke-width="1.6"/>
<line x1="321.2" y1="492.9" x2="329.5" y2="494.1" stroke="#c53030" stroke-width="1.6"/>
<line x1="329.5" y1="494.1" x2="337.8" y2="492.5" stroke="#2f855a" stroke-width="1.6"/>
<line x1="337.8" y1="492.5" x2="346.1" y2="493.9" stroke="#c53030" stroke-width="1.6"/>
<line x1="346.1" y1="493.9" x2="354.4" y2="492.0" stroke="#2f855a" stroke-width="1.6"/>
<line x1="354.4" y1="492.0" x2="362.7" y2="498.1" stroke="#c53030" stroke-width="1.6"/>
<line x1="362.7" y1="498.1" x2="371.0" y2="494.7" stroke="#2f855a" stroke-width="1.6"/>
<line x1="371.0" y1="494.7" x2="379.3" y2="496.5" stroke="#c53030" stroke-width="1.6"/>
<line x1="379.3" y1="496.5" x2="387.6" y2="494.8" stroke="#2f855a" stroke-width="1.6"/>
<line x1="387.6" y1="494.8" x2="395.9" y2="496.2" stroke="#c53030" stroke-width="1.6"/>
<line x1="395.9" y1="496.2" x2="404.1" y2="491.1" stroke="#2f855a" stroke-width="1.6"/>
<line x1="404.1" y1="491.1" x2="412.4" y2="493.7" stroke="#c53030" stroke-width="1.6"/>
<line x1="412.4" y1="493.7" x2="420.7" y2="490.2" stroke="#2f855a" stroke-width="1.6"/>
<line x1="420.7" y1="490.2" x2="429.0" y2="492.4" stroke="#c53030" stroke-width="1.6"/>
<line x1="429.0" y1="492.4" x2="437.3" y2="476.3" stroke="#2f855a" stroke-width="1.6"/>
<line x1="437.3" y1="476.3" x2="445.6" y2="483.2" stroke="#c53030" stroke-width="1.6"/>
<line x1="445.6" y1="483.2" x2="453.9" y2="398.9" stroke="#2f855a" stroke-width="1.6"/>
<line x1="453.9" y1="398.9" x2="462.2" y2="461.9" stroke="#c53030" stroke-width="1.6"/>
<line x1="462.2" y1="461.9" x2="470.5" y2="434.0" stroke="#2f855a" stroke-width="1.6"/>
<line x1="470.5" y1="434.0" x2="478.8" y2="472.0" stroke="#c53030" stroke-width="1.6"/>
<line x1="478.8" y1="472.0" x2="487.1" y2="449.3" stroke="#2f855a" stroke-width="1.6"/>
<line x1="487.1" y1="449.3" x2="495.4" y2="467.1" stroke="#c53030" stroke-width="1.6"/>
<line x1="495.4" y1="467.1" x2="503.7" y2="440.8" stroke="#2f855a" stroke-width="1.6"/>
<line x1="503.7" y1="440.8" x2="512.0" y2="459.6" stroke="#c53030" stroke-width="1.6"/>
<line x1="512.0" y1="459.6" x2="520.3" y2="433.2" stroke="#2f855a" stroke-width="1.6"/>
<line x1="520.3" y1="433.2" x2="528.6" y2="480.5" stroke="#c53030" stroke-width="1.6"/>
<line x1="528.6" y1="480.5" x2="536.9" y2="467.9" stroke="#2f855a" stroke-width="1.6"/>
<line x1="536.9" y1="467.9" x2="545.2" y2="478.1" stroke="#c53030" stroke-width="1.6"/>
<line x1="545.2" y1="478.1" x2="553.5" y2="463.0" stroke="#2f855a" stroke-width="1.6"/>
<line x1="553.5" y1="463.0" x2="561.8" y2="494.5" stroke="#c53030" stroke-width="1.6"/>
<line x1="561.8" y1="494.5" x2="570.1" y2="483.3" stroke="#2f855a" stroke-width="1.6"/>
<line x1="570.1" y1="483.3" x2="578.4" y2="493.7" stroke="#c53030" stroke-width="1.6"/>
<line x1="578.4" y1="493.7" x2="586.7" y2="476.1" stroke="#2f855a" stroke-width="1.6"/>
<line x1="586.7" y1="476.1" x2="595.0" y2="490.5" stroke="#c53030" stroke-width="1.6"/>
<line x1="595.0" y1="490.5" x2="603.3" y2="481.9" stroke="#2f855a" stroke-width="1.6"/>
<line x1="603.3" y1="481.9" x2="611.6" y2="493.0" stroke="#c53030" stroke-width="1.6"/>
<line x1="611.6" y1="493.0" x2="619.9" y2="488.1" stroke="#2f855a" stroke-width="1.6"/>
<line x1="619.9" y1="488.1" x2="628.1" y2="494.6" stroke="#c53030" stroke-width="1.6"/>
<line x1="628.1" y1="494.6" x2="636.4" y2="480.8" stroke="#2f855a" stroke-width="1.6"/>
<line x1="636.4" y1="480.8" x2="644.7" y2="486.2" stroke="#c53030" stroke-width="1.6"/>
<line x1="644.7" y1="486.2" x2="653.0" y2="479.9" stroke="#2f855a" stroke-width="1.6"/>
<line x1="653.0" y1="479.9" x2="661.3" y2="490.1" stroke="#c53030" stroke-width="1.6"/>
<line x1="661.3" y1="490.1" x2="669.6" y2="477.2" stroke="#2f855a" stroke-width="1.6"/>
<line x1="669.6" y1="477.2" x2="677.9" y2="483.8" stroke="#c53030" stroke-width="1.6"/>
<line x1="677.9" y1="483.8" x2="686.2" y2="466.9" stroke="#2f855a" stroke-width="1.6"/>
<line x1="686.2" y1="466.9" x2="694.5" y2="480.5" stroke="#c53030" stroke-width="1.6"/>
<line x1="694.5" y1="480.5" x2="702.8" y2="446.5" stroke="#2f855a" stroke-width="1.6"/>
<line x1="702.8" y1="446.5" x2="711.1" y2="469.8" stroke="#c53030" stroke-width="1.6"/>
<line x1="711.1" y1="469.8" x2="719.4" y2="395.3" stroke="#2f855a" stroke-width="1.6"/>
<line x1="719.4" y1="395.3" x2="727.7" y2="421.6" stroke="#c53030" stroke-width="1.6"/>
<line x1="727.7" y1="421.6" x2="736.0" y2="358.5" stroke="#2f855a" stroke-width="1.6"/>
<line x1="736.0" y1="358.5" x2="744.3" y2="405.8" stroke="#c53030" stroke-width="1.6"/>
<line x1="744.3" y1="405.8" x2="752.6" y2="343.5" stroke="#2f855a" stroke-width="1.6"/>
<line x1="752.6" y1="343.5" x2="760.9" y2="423.6" stroke="#c53030" stroke-width="1.6"/>
<line x1="760.9" y1="423.6" x2="769.2" y2="364.5" stroke="#2f855a" stroke-width="1.6"/>
<line x1="769.2" y1="364.5" x2="777.5" y2="408.1" stroke="#c53030" stroke-width="1.6"/>
<line x1="777.5" y1="408.1" x2="785.8" y2="356.7" stroke="#2f855a" stroke-width="1.6"/>
<line x1="785.8" y1="356.7" x2="794.1" y2="422.5" stroke="#c53030" stroke-width="1.6"/>
<line x1="794.1" y1="422.5" x2="802.4" y2="382.1" stroke="#2f855a" stroke-width="1.6"/>
<line x1="802.4" y1="382.1" x2="810.7" y2="413.4" stroke="#c53030" stroke-width="1.6"/>
<line x1="810.7" y1="413.4" x2="819.0" y2="65.9" stroke="#2f855a" stroke-width="1.6"/>
<line x1="819.0" y1="65.9" x2="827.3" y2="274.7" stroke="#c53030" stroke-width="1.6"/>
<line x1="827.3" y1="274.7" x2="835.6" y2="178.1" stroke="#2f855a" stroke-width="1.6"/>
<line x1="835.6" y1="178.1" x2="843.9" y2="318.0" stroke="#c53030" stroke-width="1.6"/>
<line x1="843.9" y1="318.0" x2="852.1" y2="227.3" stroke="#2f855a" stroke-width="1.6"/>
<line x1="852.1" y1="227.3" x2="860.4" y2="314.4" stroke="#c53030" stroke-width="1.6"/>
<line x1="860.4" y1="314.4" x2="868.7" y2="157.1" stroke="#2f855a" stroke-width="1.6"/>
<line x1="868.7" y1="157.1" x2="877.0" y2="215.2" stroke="#c53030" stroke-width="1.6"/>
<line x1="877.0" y1="215.2" x2="885.3" y2="135.3" stroke="#2f855a" stroke-width="1.6"/>
<line x1="885.3" y1="135.3" x2="893.6" y2="268.8" stroke="#c53030" stroke-width="1.6"/>
<line x1="893.6" y1="268.8" x2="901.9" y2="209.8" stroke="#2f855a" stroke-width="1.6"/>
<line x1="901.9" y1="209.8" x2="910.2" y2="384.2" stroke="#c53030" stroke-width="1.6"/>
<line x1="910.2" y1="384.2" x2="918.5" y2="351.4" stroke="#2f855a" stroke-width="1.6"/>
<line x1="918.5" y1="351.4" x2="926.8" y2="421.1" stroke="#c53030" stroke-width="1.6"/>
<line x1="926.8" y1="421.1" x2="935.1" y2="382.1" stroke="#2f855a" stroke-width="1.6"/>
<line x1="935.1" y1="382.1" x2="943.4" y2="411.2" stroke="#c53030" stroke-width="1.6"/>
<line x1="943.4" y1="411.2" x2="951.7" y2="345.9" stroke="#2f855a" stroke-width="1.6"/>
<line x1="951.7" y1="345.9" x2="960.0" y2="439.1" stroke="#c53030" stroke-width="1.6"/>
<circle cx="64.0" cy="492.2" r="2.2" fill="#475569"/>
<circle cx="72.3" cy="490.9" r="2.2" fill="#475569"/>
<circle cx="80.6" cy="491.9" r="2.2" fill="#475569"/>
<circle cx="88.9" cy="488.6" r="2.2" fill="#475569"/>
<circle cx="97.2" cy="491.0" r="2.2" fill="#475569"/>
<circle cx="105.5" cy="489.5" r="2.2" fill="#475569"/>
<circle cx="113.8" cy="495.4" r="2.2" fill="#475569"/>
<circle cx="122.1" cy="494.6" r="2.2" fill="#475569"/>
<circle cx="130.4" cy="495.4" r="2.2" fill="#475569"/>
<circle cx="138.7" cy="493.8" r="2.2" fill="#475569"/>
<circle cx="147.0" cy="494.9" r="2.2" fill="#475569"/>
<circle cx="155.3" cy="493.9" r="2.2" fill="#475569"/>
<circle cx="163.6" cy="495.5" r="2.2" fill="#475569"/>
<circle cx="171.9" cy="494.3" r="2.2" fill="#475569"/>
<circle cx="180.1" cy="495.4" r="2.2" fill="#475569"/>
<circle cx="188.4" cy="494.3" r="2.2" fill="#475569"/>
<circle cx="196.7" cy="495.3" r="2.2" fill="#475569"/>
<circle cx="205.0" cy="494.1" r="2.2" fill="#475569"/>
<circle cx="213.3" cy="495.1" r="2.2" fill="#475569"/>
<circle cx="221.6" cy="493.1" r="2.2" fill="#475569"/>
<circle cx="229.9" cy="495.6" r="2.2" fill="#475569"/>
<circle cx="238.2" cy="494.5" r="2.2" fill="#475569"/>
<circle cx="246.5" cy="496.0" r="2.2" fill="#475569"/>
<circle cx="254.8" cy="494.0" r="2.2" fill="#475569"/>
<circle cx="263.1" cy="495.2" r="2.2" fill="#475569"/>
<circle cx="271.4" cy="493.4" r="2.2" fill="#475569"/>
<circle cx="279.7" cy="494.4" r="2.2" fill="#475569"/>
<circle cx="288.0" cy="493.0" r="2.2" fill="#475569"/>
<circle cx="296.3" cy="494.8" r="2.2" fill="#475569"/>
<circle cx="304.6" cy="493.2" r="2.2" fill="#475569"/>
<circle cx="312.9" cy="495.6" r="2.2" fill="#475569"/>
<circle cx="321.2" cy="492.9" r="2.2" fill="#475569"/>
<circle cx="329.5" cy="494.1" r="2.2" fill="#475569"/>
<circle cx="337.8" cy="492.5" r="2.2" fill="#475569"/>
<circle cx="346.1" cy="493.9" r="2.2" fill="#475569"/>
<circle cx="354.4" cy="492.0" r="2.2" fill="#475569"/>
<circle cx="362.7" cy="498.1" r="2.2" fill="#475569"/>
<circle cx="371.0" cy="494.7" r="2.2" fill="#475569"/>
<circle cx="379.3" cy="496.5" r="2.2" fill="#475569"/>
<circle cx="387.6" cy="494.8" r="2.2" fill="#475569"/>
<circle cx="395.9" cy="496.2" r="2.2" fill="#475569"/>
<circle cx="404.1" cy="491.1" r="2.2" fill="#475569"/>
<circle cx="412.4" cy="493.7" r="2.2" fill="#475569"/>
<circle cx="420.7" cy="490.2" r="2.2" fill="#475569"/>
<circle cx="429.0" cy="492.4" r="2.2" fill="#475569"/>
<circle cx="437.3" cy="476.3" r="2.2" fill="#475569"/>
<circle cx="445.6" cy="483.2" r="2.2" fill="#475569"/>
<circle cx="453.9" cy="398.9" r="2.2" fill="#475569"/>
<circle cx="462.2" cy="461.9" r="2.2" fill="#475569"/>
<circle cx="470.5" cy="434.0" r="2.2" fill="#475569"/>
<circle cx="478.8" cy="472.0" r="2.2" fill="#475569"/>
<circle cx="487.1" cy="449.3" r="2.2" fill="#475569"/>
<circle cx="495.4" cy="467.1" r="2.2" fill="#475569"/>
<circle cx="503.7" cy="440.8" r="2.2" fill="#475569"/>
<circle cx="512.0" cy="459.6" r="2.2" fill="#475569"/>
<circle cx="520.3" cy="433.2" r="2.2" fill="#475569"/>
<circle cx="528.6" cy="480.5" r="2.2" fill="#475569"/>
<circle cx="536.9" cy="467.9" r="2.2" fill="#475569"/>
<circle cx="545.2" cy="478.1" r="2.2" fill="#475569"/>
<circle cx="553.5" cy="463.0" r="2.2" fill="#475569"/>
<circle cx="561.8" cy="494.5" r="2.2" fill="#475569"/>
<circle cx="570.1" cy="483.3" r="2.2" fill="#475569"/>
<circle cx="578.4" cy="493.7" r="2.2" fill="#475569"/>
<circle cx="586.7" cy="476.1" r="2.2" fill="#475569"/>
<circle cx="595.0" cy="490.5" r="2.2" fill="#475569"/>
<circle cx="603.3" cy="481.9" r="2.2" fill="#475569"/>
<circle cx="611.6" cy="493.0" r="2.2" fill="#475569"/>
<circle cx="619.9" cy="488.1" r="2.2" fill="#475569"/>
<circle cx="628.1" cy="494.6" r="2.2" fill="#475569"/>
<circle cx="636.4" cy="480.8" r="2.2" fill="#475569"/>
<circle cx="644.7" cy="486.2" r="2.2" fill="#475569"/>
<circle cx="653.0" cy="479.9" r="2.2" fill="#475569"/>
<circle cx="661.3" cy="490.1" r="2.2" fill="#475569"/>
<circle cx="669.6" cy="477.2" r="2.2" fill="#475569"/>
<circle cx="677.9" cy="483.8" r="2.2" fill="#475569"/>
<circle cx="686.2" cy="466.9" r="2.2" fill="#475569"/>
<circle cx="694.5" cy="480.5" r="2.2" fill="#475569"/>
<circle cx="702.8" cy="446.5" r="2.2" fill="#475569"/>
<circle cx="711.1" cy="469.8" r="2.2" fill="#475569"/>
<circle cx="719.4" cy="395.3" r="2.2" fill="#475569"/>
<circle cx="727.7" cy="421.6" r="2.2" fill="#475569"/>
<circle cx="736.0" cy="358.5" r="2.2" fill="#475569"/>
<circle cx="744.3" cy="405.8" r="2.2" fill="#475569"/>
<circle cx="752.6" cy="343.5" r="2.2" fill="#475569"/>
<circle cx="760.9" cy="423.6" r="2.2" fill="#475569"/>
<circle cx="769.2" cy="364.5" r="2.2" fill="#475569"/>
<circle cx="777.5" cy="408.1" r="2.2" fill="#475569"/>
<circle cx="785.8" cy="356.7" r="2.2" fill="#475569"/>
<circle cx="794.1" cy="422.5" r="2.2" fill="#475569"/>
<circle cx="802.4" cy="382.1" r="2.2" fill="#475569"/>
<circle cx="810.7" cy="413.4" r="2.2" fill="#475569"/>
<circle cx="819.0" cy="65.9" r="2.2" fill="#475569"/>
<circle cx="827.3" cy="274.7" r="2.2" fill="#475569"/>
<circle cx="835.6" cy="178.1" r="2.2" fill="#475569"/>
<circle cx="843.9" cy="318.0" r="2.2" fill="#475569"/>
<circle cx="852.1" cy="227.3" r="2.2" fill="#475569"/>
<circle cx="860.4" cy="314.4" r="2.2" fill="#475569"/>
<circle cx="868.7" cy="157.1" r="2.2" fill="#475569"/>
<circle cx="877.0" cy="215.2" r="2.2" fill="#475569"/>
<circle cx="885.3" cy="135.3" r="2.2" fill="#475569"/>
<circle cx="893.6" cy="268.8" r="2.2" fill="#475569"/>
<circle cx="901.9" cy="209.8" r="2.2" fill="#475569"/>
<circle cx="910.2" cy="384.2" r="2.2" fill="#475569"/>
<circle cx="918.5" cy="351.4" r="2.2" fill="#475569"/>
<circle cx="926.8" cy="421.1" r="2.2" fill="#475569"/>
<circle cx="935.1" cy="382.1" r="2.2" fill="#475569"/>
<circle cx="943.4" cy="411.2" r="2.2" fill="#475569"/>
<circle cx="951.7" cy="345.9" r="2.2" fill="#475569"/>
<circle cx="960.0" cy="439.1" r="2.2" fill="#475569"/>
<text x="64" y="24" font-size="16" font-weight="600" fill="#1a202c">MSTR — Elliott Wave count</text>
</svg>