<svg xmlns="http://www.w3.org/2000/svg" viewBox="0 0 1000 560" font-family="system-ui,-apple-system,sans-serif">
<rect width="1000" height="560" fill="white"/>
<line x1="64" y1="524.0" x2="960" y2="524.0" stroke="#e2e8f0" stroke-width="1"/>
<text x="966" y="528.0" font-size="11" fill="#718096">14.30</text>
<line x1="64" y1="403.0" x2="960" y2="403.0" stroke="#e2e8f0" stroke-width="1"/>
<text x="966" y="407.0" font-size="11" fill="#718096">141.28</text>
<line x1="64" y1="282.0" x2="960" y2="282.0" stroke="#e2e8f0" stroke-width="1"/>
<text x="966" y="286.0" font-size="11" fill="#718096">268.25</text>
<line x1="64" y1="161.0" x2="960" y2="161.0" stroke="#e2e8f0" stroke-width="1"/>
<text x="966" y="165.0" font-size="11" fill="#718096">395.23</text>
<line x1="64" y1="40.0" x2="960" y2="40.0" stroke="#e2e8f0" stroke-width="1"/>
<text x="966" y="44.0" font-size="11" fill="#718096">522.21</text>
<line x1="64.0" y1="487.4" x2="72.0" y2="484.2" stroke="#2f855a" stroke-width="1.6"/>
<line x1="72.0" y1="484.2" x2="80.0" y2="491.8" stroke="#c53030" stroke-width="1.6"/>
<line x1="80.0" y1="491.8" x2="88.0" y2="487.0" stroke="#2f855a" stroke-width="1.6"/>
<line x1="88.0" y1="487.0" x2="96.0" y2="495.3" stroke="#c53030" stroke-width="1.6"/>
<line x1="96.0" y1="495.3" x2="104.0" y2="491.0" stroke="#2f855a" stroke-width="1.6"/>
<line x1="104.0" y1="491.0" x2="112.0" y2="498.1" stroke="#c53030" stroke-width="1.6"/>
<line x1="112.0" y1="498.1" x2="120.0" y2="491.8" stroke="#2f855a" stroke-width="1.6"/>
<line x1="120.0" y1="491.8" x2="128.0" y2="495.6" stroke="#c53030" stroke-width="1.6"/>
<line x1="128.0" y1="495.6" x2="136.0" y2="485.0" stroke="#2f855a" stroke-width="1.6"/>
<line x1="136.0" y1="485.0" x2="144.0" y2="488.4" stroke="#c53030" stroke-width="1.6"/>
<line x1="144.0" y1="488.4" x2="152.0" y2="481.8" stroke="#2f855a" stroke-width="1.6"/>
<line x1="152.0" y1="481.8" x2="160.0" y2="486.1" stroke="#c53030" stroke-width="1.6"/>
<line x1="160.0" y1="486.1" x2="168.0" y2="480.3" stroke="#2f855a" stroke-width="1.6"/>
<line x1="168.0" y1="480.3" x2="176.0" y2="485.2" stroke="#c53030" stroke-width="1.6"/>
<line x1="176.0" y1="485.2" x2="184.0" y2="478.8" stroke="#2f855a" stroke-width="1.6"/>
<line x1="184.0" y1="478.8" x2="192.0" y2="483.1" stroke="#c53030" stroke-width="1.6"/>
<line x1="192.0" y1="483.1" x2="200.0" y2="476.3" stroke="#2f855a" stroke-width="1.6"/>
<line x1="200.0" y1="476.3" x2="208.0" y2="479.8" stroke="#c53030" stroke-width="1.6"/>
<line x1="208.0" y1="479.8" x2="216.0" y2="475.8" stroke="#2f855a" stroke-width="1.6"/>
<line x1="216.0" y1="475.8" x2="224.0" y2="479.0" stroke="#c53030" stroke-width="1.6"/>
<line x1="224.0" y1="479.0" x2="232.0" y2="476.4" stroke="#2f855a" stroke-width="1.6"/>
<line x1="232.0" y1="476.4" x2="240.0" y2="480.1" stroke="#c53030" stroke-width="1.6"/>
<line x1="240.0" y1="480.1" x2="248.0" y2="476.7" stroke="#2f855a" stroke-width="1.6"/>
<line x1="248.0" y1="476.7" x2="256.0" y2="480.3" stroke="#c53030" stroke-width="1.6"/>
<line x1="256.0" y1="480.3" x2="264.0" y2="449.8" stroke="#2f855a" stroke-width="1.6"/>
<line x1="264.0" y1="449.8" x2="272.0" y2="463.6" stroke="#c53030" stroke-width="1.6"/>
<line x1="272.0" y1="463.6" x2="280.0" y2="452.8" stroke="#2f855a" stroke-width="1.6"/>
<line x1="280.0" y1="452.8" x2="288.0" y2="459.6" stroke="#c53030" stroke-width="1.6"/>
<line x1="288.0" y1="459.6" x2="296.0" y2="449.7" stroke="#2f855a" stroke-width="1.6"/>
<line x1="296.0" y1="449.7" x2="304.0" y2="460.2" stroke="#c53030" stroke-width="1.6"/>
<line x1="304.0" y1="460.2" x2="312.0" y2="450.9" stroke="#2f855a" stroke-width="1.6"/>
<line x1="312.0" y1="450.9" x2="320.0" y2="457.8" stroke="#c53030" stroke-width="1.6"/>
<line x1="320.0" y1="457.8" x2="328.0" y2="449.6" stroke="#2f855a" stroke-width="1.6"/>
<line x1="328.0" y1="449.6" x2="336.0" y2="461.9" stroke="#c53030" stroke-width="1.6"/>
<line x1="336.0" y1="461.9" x2="344.0" y2="449.4" stroke="#2f855a" stroke-width="1.6"/>
<line x1="344.0" y1="449.4" x2="352.0" y2="459.6" stroke="#c53030" stroke-width="1.6"/>
<line x1="352.0" y1="459.6" x2="360.0" y2="442.3" stroke="#2f855a" stroke-width="1.6"/>
<line x1="360.0" y1="442.3" x2="368.0" y2="451.6" stroke="#c53030" stroke-width="1.6"/>
<line x1="368.0" y1="451.6" x2="376.0" y2="427.9" stroke="#2f855a" stroke-width="1.6"/>
<line x1="376.0" y1="427.9" x2="384.0" y2="438.4" stroke="#c53030" stroke-width="1.6"/>
<line x1="384.0" y1="438.4" x2="392.0" y2="415.2" stroke="#2f855a" stroke-width="1.6"/>
<line x1="392.0" y1="415.2" x2="400.0" y2="425.7" stroke="#c53030" stroke-width="1.6"/>
<line x1="400.0" y1="425.7" x2="408.0" y2="414.1" stroke="#2f855a" stroke-width="1.6"/>
<line x1="408.0" y1="414.1" x2="416.0" y2="423.0" stroke="#c53030" stroke-width="1.6"/>
<line x1="416.0" y1="423.0" x2="424.0" y2="400.6" stroke="#2f855a" stroke-width="1.6"/>
<line x1="424.0" y1="400.6" x2="432.0" y2="422.9" stroke="#c53030" stroke-width="1.6"/>
<line x1="432.0" y1="422.9" x2="440.0" y2="403.9" stroke="#2f855a" stroke-width="1.6"/>
<line x1="440.0" y1="403.9" x2="448.0" y2="414.1" stroke="#c53030" stroke-width="1.6"/>
<line x1="448.0" y1="414.1" x2="456.0" y2="403.8" stroke="#2f855a" stroke-width="1.6"/>
<line x1="456.0" y1="403.8" x2="464.0" y2="423.5" stroke="#c53030" stroke-width="1.6"/>
<line x1="464.0" y1="423.5" x2="472.0" y2="408.4" stroke="#2f855a" stroke-width="1.6"/>
<line x1="472.0" y1="408.4" x2="480.0" y2="421.1" stroke="#c53030" stroke-width="1.6"/>
<line x1="480.0" y1="421.1" x2="488.0" y2="399.9" stroke="#2f855a" stroke-width="1.6"/>
<line x1="488.0" y1="399.9" x2="496.0" y2="413.5" stroke="#c53030" stroke-width="1.6"/>
<line x1="496.0" y1="413.5" x2="504.0" y2="361.2" stroke="#2f855a" stroke-width="1.6"/>
<line x1="504.0" y1="361.2" x2="512.0" y2="388.6" stroke="#c53030" stroke-width="1.6"/>
<line x1="512.0" y1="388.6" x2="520.0" y2="368.9" stroke="#2f855a" stroke-width="1.6"/>
<line x1="520.0" y1="368.9" x2="528.0" y2="401.0" stroke="#c53030" stroke-width="1.6"/>
<line x1="528.0" y1="401.0" x2="536.0" y2="383.9" stroke="#2f855a" stroke-width="1.6"/>
<line x1="536.0" y1="383.9" x2="544.0" y2="415.2" stroke="#c53030" stroke-width="1.6"/>
<line x1="544.0" y1="415.2" x2="552.0" y2="373.3" stroke="#2f855a" stroke-width="1.6"/>
<line x1="552.0" y1="373.3" x2="560.0" y2="409.1" stroke="#c53030" stroke-width="1.6"/>
<line x1="560.0" y1="409.1" x2="568.0" y2="360.0" stroke="#2f855a" stroke-width="1.6"/>
<line x1="568.0" y1="360.0" x2="576.0" y2="378.1" stroke="#c53030" stroke-width="1.6"/>
<line x1="576.0" y1="378.1" x2="584.0" y2="361.3" stroke="#2f855a" stroke-width="1.6"/>
<line x1="584.0" y1="361.3" x2="592.0" y2="387.5" stroke="#c53030" stroke-width="1.6"/>
<line x1="592.0" y1="387.5" x2="600.0" y2="297.6" stroke="#2f855a" stroke-width="1.6"/>
<line x1="600.0" y1="297.6" x2="608.0" y2="330.3" stroke="#c53030" stroke-width="1.6"/>
<line x1="608.0" y1="330.3" x2="616.0" y2="302.0" stroke="#2f855a" stroke-width="1.6"/>
<line x1="616.0" y1="302.0" x2="624.0" y2="328.4" stroke="#c53030" stroke-width="1.6"/>
<line x1="624.0" y1="328.4" x2="632.0" y2="299.8" stroke="#2f855a" stroke-width="1.6"/>
<line x1="632.0" y1="299.8" x2="640.0" y2="350.6" stroke="#c53030" stroke-width="1.6"/>
<line x1="640.0" y1="350.6" x2="648.0" y2="310.9" stroke="#2f855a" stroke-width="1.6"/>
<line x1="648.0" y1="310.9" x2="656.0" y2="406.0" stroke="#c53030" stroke-width="1.6"/>
<line x1="656.0" y1="406.0" x2="664.0" y2="359.1" stroke="#2f855a" stroke-width="1.6"/>
<line x1="664.0" y1="359.1" x2="672.0" y2="383.6" stroke="#c53030" stroke-width="1.6"/>
<line x1="672.0" y1="383.6" x2="680.0" y2="284.7" stroke="#2f855a" stroke-width="1.6"/>
<line x1="680.0" y1="284.7" x2="688.0" y2="307.9" stroke="#c53030" stroke-width="1.6"/>
<line x1="688.0" y1="307.9" x2="696.0" y2="260.8" stroke="#2f855a" stroke-width="1.6"/>
<line x1="696.0" y1="260.8" x2="704.0" y2="277.5" stroke="#c53030" stroke-width="1.6"/>
<line x1="704.0" y1="277.5" x2="712.0" y2="245.1" stroke="#2f855a" stroke-width="1.6"/>
<line x1="712.0" y1="245.1" x2="720.0" y2="269.3" stroke="#c53030" stroke-width="1.6"/>
<line x1="720.0" y1="269.3" x2="728.0" y2="235.2" stroke="#2f855a" stroke-width="1.6"/>
<line x1="728.0" y1="235.2" x2="736.0" y2="269.0" stroke="#c53030" stroke-width="1.6"/>
<line x1="736.0" y1="269.0" x2="744.0" y2="241.3" stroke="#2f855a" stroke-width="1.6"/>
<line x1="744.0" y1="241.3" x2="752.0" y2="264.0" stroke="#c53030" stroke-width="1.6"/>
<line x1="752.0" y1="264.0" x2="760.0" y2="181.0" stroke="#2f855a" stroke-width="1.6"/>
<line x1="760.0" y1="181.0" x2="768.0" y2="228.8" stroke="#c53030" stroke-width="1.6"/>
<line x1="768.0" y1="228.8" x2="776.0" y2="169.3" stroke="#2f855a" stroke-width="1.6"/>
<line x1="776.0" y1="169.3" x2="784.0" y2="224.1" stroke="#c53030" stroke-width="1.6"/>
<line x1="784.0" y1="224.1" x2="792.0" y2="179.2" stroke="#2f855a" stroke-width="1.6"/>
<line x1="792.0" y1="179.2" x2="800.0" y2="221.4" stroke="#c53030" stroke-width="1.6"/>
<line x1="800.0" y1="221.4" x2="808.0" y2="142.5" stroke="#2f855a" stroke-width="1.6"/>
<line x1="808.0" y1="142.5" x2="816.0" y2="231.3" stroke="#c53030" stroke-width="1.6"/>
<line x1="816.0" y1="231.3" x2="824.0" y2="193.9" stroke="#2f855a" stroke-width="1.6"/>
<line x1="824.0" y1="193.9" x2="832.0" y2="222.7" stroke="#c53030" stroke-width="1.6"/>
<line x1="832.0" y1="222.7" x2="840.0" y2="195.1" stroke="#2f855a" stroke-width="1.6"/>
<line x1="840.0" y1="195.1" x2="848.0" y2="256.2" stroke="#c53030" stroke-width="1.6"/>
<line x1="848.0" y1="256.2" x2="856.0" y2="201.9" stroke="#2f855a" stroke-width="1.6"/>
<line x1="856.0" y1="201.9" x2="864.0" y2="244.9" stroke="#c53030" stroke-width="1.6"/>
<line x1="864.0" y1="244.9" x2="872.0" y2="201.1" stroke="#2f855a" stroke-width="1.6"/>
<line x1="872.0" y1="201.1" x2="880.0" y2="261.3" stroke="#c53030" stroke-width="1.6"/>
<line x1="880.0" y1="261.3" x2="888.0" y2="128.5" stroke="#2f855a" stroke-width="1.6"/>
<line x1="888.0" y1="128.5" x2="896.0" y2="161.6" stroke="#c53030" stroke-width="1.6"/>
<line x1="896.0" y1="161.6" x2="904.0" y2="120.5" stroke="#2f855a" stroke-width="1.6"/>
<line x1="904.0" y1="120.5" x2="912.0" y2="151.9" stroke="#c53030" stroke-width="1.6"/>
<line x1="912.0" y1="151.9" x2="920.0" y2="116.1" stroke="#2f855a" stroke-width="1.6"/>
<line x1="920.0" y1="116.1" x2="928.0" y2="150.9" stroke="#c53030" stroke-width="1.6"/>
<line x1="928.0" y1="150.9" x2="936.0" y2="65.9" stroke="#2f855a" stroke-width="1.6"/>
<line x1="936.0" y1="65.9" x2="944.0" y2="198.0" stroke="#c53030" stroke-width="1.6"/>
<line x1="944.0" y1="198.0" x2="952.0" y2="149.3" stroke="#2f855a" stroke-width="1.6"/>
<line x1="952.0" y1="149.3" x2="960.0" y2="196.7" stroke="#c53030" stroke-width="1.6"/>
<circle cx="64.0" cy="487.4" r="2.2" fill="#475569"/>
<circle cx="72.0" cy="484.2" r="2.2" fill="#475569"/>
<circle cx="80.0" cy="491.8" r="2.2" fill="#475569"/>
<circle cx="88.0" cy="487.0" r="2.2" fill="#475569"/>
<circle cx="96.0" cy="495.3" r="2.2" fill="#475569"/>
<circle cx="104.0" cy="491.0" r="2.2" fill="#475569"/>
<circle cx="112.0" cy="498.1" r="2.2" fill="#475569"/>
<circle cx="120.0" cy="491.8" r="2.2" fill="#475569"/>
<circle cx="128.0" cy="495.6" r="2.2" fill="#475569"/>
<circle cx="136.0" cy="485.0" r="2.2" fill="#475569"/>
<circle cx="144.0" cy="488.4" r="2.2" fill="#475569"/>
<circle cx="152.0" cy="481.8" r="2.2" fill="#475569"/>
<circle cx="160.0" cy="486.1" r="2.2" fill="#475569"/>
<circle cx="168.0" cy="480.3" r="2.2" fill="#475569"/>
<circle cx="176.0" cy="485.2" r="2.2" fill="#475569"/>
<circle cx="184.0" cy="478.8" r="2.2" fill="#475569"/>
<circle cx="192.0" cy="483.1" r="2.2" fill="#475569"/>
<circle cx="200.0" cy="476.3" r="2.2" fill="#475569"/>
<circle cx="208.0" cy="479.8" r="2.2" fill="#475569"/>
<circle cx="216.0" cy="475.8" r="2.2" fill="#475569"/>
<circle cx="224.0" cy="479.0" r="2.2" fill="#475569"/>
<circle cx="232.0" cy="476.4" r="2.2" fill="#475569"/>
<circle cx="240.0" cy="480.1" r="2.2" fill="#475569"/>
<circle cx="248.0" cy="476.7" r="2.2" fill="#475569"/>
<circle cx="256.0" cy="480.3" r="2.2" fill="#475569"/>
<circle cx="264.0" cy="449.8" r="2.2" fill="#475569"/>
<circle cx="272.0" cy="463.6" r="2.2" fill="#475569"/>
<circle cx="280.0" cy="452.8" r="2.2" fill="#475569"/>
<circle cx="288.0" cy="459.6" r="2.2" fill="#475569"/>
<circle cx="296.0" cy="449.7" r="2.2" fill="#475569"/>
<circle cx="304.0" cy="460.2" r="2.2" fill="#475569"/>
<circle cx="312.0" cy="450.9" r="2.2" fill="#475569"/>
<circle cx="320.0" cy="457.8" r="2.2" fill="#475569"/>
<circle cx="328.0" cy="449.6" r="2.2" fill="#475569"/>
<circle cx="336.0" cy="461.9" r="2.2" fill="#475569"/>
<circle cx="344.0" cy="449.4" r="2.2" fill="#475569"/>
<circle cx="352.0" cy="459.6" r="2.2" fill="#475569"/>
<circle cx="360.0" cy="442.3" r="2.2" fill="#475569"/>
<circle cx="368.0" cy="451.6" r="2.2" fill="#475569"/>
<circle cx="376.0" cy="427.9" r="2.2" fill="#475569"/>
<circle cx="384.0" cy="438.4" r="2.2" fill="#475569"/>
<circle cx="392.0" cy="415.2" r="2.2" fill="#475569"/>
<circle cx="400.0" cy="425.7" r="2.2" fill="#475569"/>
<circle cx="408.0" cy="414.1" r="2.2" fill="#475569"/>
<circle cx="416.0" cy="423.0" r="2.2" fill="#475569"/>
<circle cx="424.0" cy="400.6" r="2.2" fill="#475569"/>
<circle cx="432.0" cy="422.9" r="2.2" fill="#475569"/>
<circle cx="440.0" cy="403.9" r="2.2" fill="#475569"/>
<circle cx="448.0" cy="414.1" r="2.2" fill="#475569"/>
<circle cx="456.0" cy="403.8" r="2.2" fill="#475569"/>
<circle cx="464.0" cy="423.5" r="2.2" fill="#475569"/>
<circle cx="472.0" cy="408.4" r="2.2" fill="#475569"/>
<circle cx="480.0" cy="421.1" r="2.2" fill="#475569"/>
<circle cx="488.0" cy="399.9" r="2.2" fill="#475569"/>
<circle cx="496.0" cy="413.5" r="2.2" fill="#475569"/>
<circle cx="504.0" cy="361.2" r="2.2" fill="#475569"/>
<circle cx="512.0" cy="388.6" r="2.2" fill="#475569"/>
<circle cx="520.0" cy="368.9" r="2.2" fill="#475569"/>
<circle cx="528.0" cy="401.0" r="2.2" fill="#475569"/>
<circle cx="536.0" cy="383.9" r="2.2" fill="#475569"/>
<circle cx="544.0" cy="415.2" r="2.2" fill="#475569"/>
<circle cx="552.0" cy="373.3" r="2.2" fill="#475569"/>
<circle cx="560.0" cy="409.1" r="2.2" fill="#475569"/>
<circle cx="568.0" cy="360.0" r="2.2" fill="#475569"/>
<circle cx="576.0" cy="378.1" r="2.2" fill="#475569"/>
<circle cx="584.0" cy="361.3" r="2.2" fill="#475569"/>
<circle cx="592.0" cy="387.5" r="2.2" fill="#475569"/>
<circle cx="600.0" cy="297.6" r="2.2" fill="#475569"/>
<circle cx="608.0" cy="330.3" r="2.2" fill="#475569"/>
<circle cx="616.0" cy="302.0" r="2.2" fill="#475569"/>
<circle cx="624.0" cy="328.4" r="2.2" fill="#475569"/>
<circle cx="632.0" cy="299.8" r="2.2" fill="#475569"/>
<circle cx="640.0" cy="350.6" r="2.2" fill="#475569"/>
<circle cx="648.0" cy="310.9" r="2.2" fill="#475569"/>
<circle cx="656.0" cy="406.0" r="2.2" fill="#475569"/>
<circle cx="664.0" cy="359.1" r="2.2" fill="#475569"/>
<circle cx="672.0" cy="383.6" r="2.2" fill="#475569"/>
<circle cx="680.0" cy="284.7" r="2.2" fill="#475569"/>
<circle cx="688.0" cy="307.9" r="2.2" fill="#475569"/>
<circle cx="696.0" cy="260.8" r="2.2" fill="#475569"/>
<circle cx="704.0" cy="277.5" r="2.2" fill="#475569"/>
<circle cx="712.0" cy="245.1" r="2.2" fill="#475569"/>
<circle cx="720.0" cy="269.3" r="2.2" fill="#475569"/>
<circle cx="728.0" cy="235.2" r="2.2" fill="#475569"/>
<circle cx="736.0" cy="269.0" r="2.2" fill="#475569"/>
<circle cx="744.0" cy="241.3" r="2.2" fill="#475569"/>
<circle cx="752.0" cy="264.0" r="2.2" fill="#475569"/>
<circle cx="760.0" cy="181.0" r="2.2" fill="#475569"/>
<circle cx="768.0" cy="228.8" r="2.2" fill="#475569"/>
<circle cx="776.0" cy="169.3" r="2.2" fill="#475569"/>
<circle cx="784.0" cy="224.1" r="2.2" fill="#475569"/>
<circle cx="792.0" cy="179.2" r="2.2" fill="#475569"/>
<circle cx="800.0" cy="221.4" r="2.2" fill="#475569"/>
<circle cx="808.0" cy="142.5" r="2.2" fill="#475569"/>
<circle cx="816.0" cy="231.3" r="2.2" fill="#475569"/>
<circle cx="824.0" cy="193.9" r="2.2" fill="#475569"/>
<circle cx="832.0" cy="222.7" r="2.2" fill="#475569"/>
<circle cx="840.0" cy="195.1" r="2.2" fill="#475569"/>
<circle cx="848.0" cy="256.2" r="2.2" fill="#475569"/>
<circle cx="856.0" cy="201.9" r="2.2" fill="#475569"/>
<circle cx="864.0" cy="244.9" r="2.2" fill="#475569"/>
<circle cx="872.0" cy="201.1" r="2.2" fill="#475569"/>
<circle cx="880.0" cy="261.3" r="2.2" fill="#475569"/>
<circle cx="888.0" cy="128.5" r="2.2" fill="#475569"/>
<circle cx="896.0" cy="161.6" r="2.2" fill="#475569"/>
<circle cx="904.0" cy="120.5" r="2.2" fill="#475569"/>
<circle cx="912.0" cy="151.9" r="2.2" fill="#475569"/>
<circle cx="920.0" cy="116.1" r="2.2" fill="#475569"/>
<circle cx="928.0" cy="150.9" r="2.2" fill="#475569"/>
<circle cx="936.0" cy="65.9" r="2.2" fill="#475569"/>
<circle cx="944.0" cy="198.0" r="2.2" fill="#475569"/>
<circle cx="952.0" cy="149.3" r="2.2" fill="#475569"/>
<circle cx="960.0" cy="196.7" r="2.2" fill="#475569"/>
<text x="64" y="24" font-size="16" font-weight="600" fill="#1a202c">AVGO — Elliott Wave count</text>
</svg>