<svg xmlns="http://www.w3.org/2000/svg" viewBox="0 0 1000 560" font-family="system-ui,-apple-system,sans-serif">
<rect width="1000" height="560" fill="white"/>
<line x1="64" y1="524.0" x2="960" y2="524.0" stroke="#e2e8f0" stroke-width="1"/>
<text x="966" y="528.0" font-size="11" fill="#718096">-111.71</text>
<line x1="64" y1="403.0" x2="960" y2="403.0" stroke="#e2e8f0" stroke-width="1"/>
<text x="966" y="407.0" font-size="11" fill="#718096">539.72</text>
<line x1="64" y1="282.0" x2="960" y2="282.0" stroke="#e2e8f0" stroke-width="1"/>
<text x="966" y="286.0" font-size="11" fill="#718096">1,191</text>
<line x1="64" y1="161.0" x2="960" y2="161.0" stroke="#e2e8f0" stroke-width="1"/>
<text x="966" y="165.0" font-size="11" fill="#718096">1,843</text>
<line x1="64" y1="40.0" x2="960" y2="40.0" stroke="#e2e8f0" stroke-width="1"/>
<text x="966" y="44.0" font-size="11" fill="#718096">2,494</text>
<line x1="64.0" y1="494.8" x2="72.5" y2="493.3" stroke="#2f855a" stroke-width="1.6"/>
<line x1="72.5" y1="493.3" x2="80.9" y2="494.4" stroke="#c53030" stroke-width="1.6"/>
<line x1="80.9" y1="494.4" x2="89.4" y2="492.4" stroke="#2f855a" stroke-width="1.6"/>
<line x1="89.4" y1="492.4" x2="97.8" y2="498.1" stroke="#c53030" stroke-width="1.6"/>
<line x1="97.8" y1="498.1" x2="106.3" y2="495.9" stroke="#2f855a" stroke-width="1.6"/>
<line x1="106.3" y1="495.9" x2="114.7" y2="498.0" stroke="#c53030" stroke-width="1.6"/>
<line x1="114.7" y1="498.0" x2="123.2" y2="496.5" stroke="#2f855a" stroke-width="1.6"/>
<line x1="123.2" y1="496.5" x2="131.6" y2="497.9" stroke="#c53030" stroke-width="1.6"/>
<line x1="131.6" y1="497.9" x2="140.1" y2="495.1" stroke="#2f855a" stroke-width="1.6"/>
<line x1="140.1" y1="495.1" x2="148.5" y2="496.6" stroke="#c53030" stroke-width="1.6"/>
<line x1="148.5" y1="496.6" x2="157.0" y2="496.0" stroke="#2f855a" stroke-width="1.6"/>
<line x1="157.0" y1="496.0" x2="165.4" y2="496.5" stroke="#c53030" stroke-width="1.6"/>
<line x1="165.4" y1="496.5" x2="173.9" y2="495.2" stroke="#2f855a" stroke-width="1.6"/>
<line x1="173.9" y1="495.2" x2="182.3" y2="495.9" stroke="#c53030" stroke-width="1.6"/>
<line x1="182.3" y1="495.9" x2="190.8" y2="494.0" stroke="#2f855a" stroke-width="1.6"/>
<line x1="190.8" y1="494.0" x2="199.2" y2="495.0" stroke="#c53030" stroke-width="1.6"/>
<line x1="199.2" y1="495.0" x2="207.7" y2="494.5" stroke="#2f855a" stroke-width="1.6"/>
<line x1="207.7" y1="494.5" x2="216.2" y2="494.9" stroke="#c53030" stroke-width="1.6"/>
<line x1="216.2" y1="494.9" x2="224.6" y2="494.4" stroke="#2f855a" stroke-width="1.6"/>
<line x1="224.6" y1="494.4" x2="233.1" y2="495.5" stroke="#c53030" stroke-width="1.6"/>
<line x1="233.1" y1="495.5" x2="241.5" y2="495.2" stroke="#2f855a" stroke-width="1.6"/>
<line x1="241.5" y1="495.2" x2="250.0" y2="495.8" stroke="#c53030" stroke-width="1.6"/>
<line x1="250.0" y1="495.8" x2="258.4" y2="495.1" stroke="#2f855a" stroke-width="1.6"/>
<line x1="258.4" y1="495.1" x2="266.9" y2="495.5" stroke="#c53030" stroke-width="1.6"/>
<line x1="266.9" y1="495.5" x2="275.3" y2="495.0" stroke="#2f855a" stroke-width="1.6"/>
<line x1="275.3" y1="495.0" x2="283.8" y2="495.8" stroke="#c53030" stroke-width="1.6"/>
<line x1="283.8" y1="495.8" x2="292.2" y2="495.2" stroke="#2f855a" stroke-width="1.6"/>
<line x1="292.2" y1="495.2" x2="300.7" y2="495.7" stroke="#c53030" stroke-width="1.6"/>
<line x1="300.7" y1="495.7" x2="309.1" y2="494.2" stroke="#2f855a" stroke-width="1.6"/>
<line x1="309.1" y1="494.2" x2="317.6" y2="495.3" stroke="#c53030" stroke-width="1.6"/>
<line x1="317.6" y1="495.3" x2="326.0" y2="494.6" stroke="#2f855a" stroke-width="1.6"/>
<line x1="326.0" y1="494.6" x2="334.5" y2="495.2" stroke="#c53030" stroke-width="1.6"/>
<line x1="334.5" y1="495.2" x2="342.9" y2="493.4" stroke="#2f855a" stroke-width="1.6"/>
<line x1="342.9" y1="493.4" x2="351.4" y2="494.0" stroke="#c53030" stroke-width="1.6"/>
<line x1="351.4" y1="494.0" x2="359.8" y2="482.8" stroke="#2f855a" stroke-width="1.6"/>
<line x1="359.8" y1="482.8" x2="368.3" y2="485.9" stroke="#c53030" stroke-width="1.6"/>
<line x1="368.3" y1="485.9" x2="376.8" y2="477.8" stroke="#2f855a" stroke-width="1.6"/>
<line x1="376.8" y1="477.8" x2="385.2" y2="481.8" stroke="#c53030" stroke-width="1.6"/>
<line x1="385.2" y1="481.8" x2="393.7" y2="478.7" stroke="#2f855a" stroke-width="1.6"/>
<line x1="393.7" y1="478.7" x2="402.1" y2="481.7" stroke="#c53030" stroke-width="1.6"/>
<line x1="402.1" y1="481.7" x2="410.6" y2="478.0" stroke="#2f855a" stroke-width="1.6"/>
<line x1="410.6" y1="478.0" x2="419.0" y2="480.8" stroke="#c53030" stroke-width="1.6"/>
<line x1="419.0" y1="480.8" x2="427.5" y2="474.9" stroke="#2f855a" stroke-width="1.6"/>
<line x1="427.5" y1="474.9" x2="435.9" y2="476.7" stroke="#c53030" stroke-width="1.6"/>
<line x1="435.9" y1="476.7" x2="444.4" y2="467.6" stroke="#2f855a" stroke-width="1.6"/>
<line x1="444.4" y1="467.6" x2="452.8" y2="472.7" stroke="#c53030" stroke-width="1.6"/>
<line x1="452.8" y1="472.7" x2="461.3" y2="465.1" stroke="#2f855a" stroke-width="1.6"/>
<line x1="461.3" y1="465.1" x2="469.7" y2="468.9" stroke="#c53030" stroke-width="1.6"/>
<line x1="469.7" y1="468.9" x2="478.2" y2="450.4" stroke="#2f855a" stroke-width="1.6"/>
<line x1="478.2" y1="450.4" x2="486.6" y2="459.8" stroke="#c53030" stroke-width="1.6"/>
<line x1="486.6" y1="459.8" x2="495.1" y2="450.7" stroke="#2f855a" stroke-width="1.6"/>
<line x1="495.1" y1="450.7" x2="503.5" y2="460.7" stroke="#c53030" stroke-width="1.6"/>
<line x1="503.5" y1="460.7" x2="512.0" y2="455.5" stroke="#2f855a" stroke-width="1.6"/>
<line x1="512.0" y1="455.5" x2="520.5" y2="469.3" stroke="#c53030" stroke-width="1.6"/>
<line x1="520.5" y1="469.3" x2="528.9" y2="459.1" stroke="#2f855a" stroke-width="1.6"/>
<line x1="528.9" y1="459.1" x2="537.4" y2="468.4" stroke="#c53030" stroke-width="1.6"/>
<line x1="537.4" y1="468.4" x2="545.8" y2="458.9" stroke="#2f855a" stroke-width="1.6"/>
<line x1="545.8" y1="458.9" x2="554.3" y2="463.6" stroke="#c53030" stroke-width="1.6"/>
<line x1="554.3" y1="463.6" x2="562.7" y2="457.9" stroke="#2f855a" stroke-width="1.6"/>
<line x1="562.7" y1="457.9" x2="571.2" y2="466.2" stroke="#c53030" stroke-width="1.6"/>
<line x1="571.2" y1="466.2" x2="579.6" y2="454.7" stroke="#2f855a" stroke-width="1.6"/>
<line x1="579.6" y1="454.7" x2="588.1" y2="459.6" stroke="#c53030" stroke-width="1.6"/>
<line x1="588.1" y1="459.6" x2="596.5" y2="408.6" stroke="#2f855a" stroke-width="1.6"/>
<line x1="596.5" y1="408.6" x2="605.0" y2="418.9" stroke="#c53030" stroke-width="1.6"/>
<line x1="605.0" y1="418.9" x2="613.4" y2="377.6" stroke="#2f855a" stroke-width="1.6"/>
<line x1="613.4" y1="377.6" x2="621.9" y2="394.8" stroke="#c53030" stroke-width="1.6"/>
<line x1="621.9" y1="394.8" x2="630.3" y2="368.6" stroke="#2f855a" stroke-width="1.6"/>
<line x1="630.3" y1="368.6" x2="638.8" y2="398.8" stroke="#c53030" stroke-width="1.6"/>
<line x1="638.8" y1="398.8" x2="647.2" y2="388.9" stroke="#2f855a" stroke-width="1.6"/>
<line x1="647.2" y1="388.9" x2="655.7" y2="402.9" stroke="#c53030" stroke-width="1.6"/>
<line x1="655.7" y1="402.9" x2="664.2" y2="379.2" stroke="#2f855a" stroke-width="1.6"/>
<line x1="664.2" y1="379.2" x2="672.6" y2="396.5" stroke="#c53030" stroke-width="1.6"/>
<line x1="672.6" y1="396.5" x2="681.1" y2="374.8" stroke="#2f855a" stroke-width="1.6"/>
<line x1="681.1" y1="374.8" x2="689.5" y2="390.5" stroke="#c53030" stroke-width="1.6"/>
<line x1="689.5" y1="390.5" x2="698.0" y2="380.4" stroke="#2f855a" stroke-width="1.6"/>
<line x1="698.0" y1="380.4" x2="706.4" y2="399.8" stroke="#c53030" stroke-width="1.6"/>
<line x1="706.4" y1="399.8" x2="714.9" y2="390.4" stroke="#2f855a" stroke-width="1.6"/>
<line x1="714.9" y1="390.4" x2="723.3" y2="407.2" stroke="#c53030" stroke-width="1.6"/>
<line x1="723.3" y1="407.2" x2="731.8" y2="358.8" stroke="#2f855a" stroke-width="1.6"/>
<line x1="731.8" y1="358.8" x2="740.2" y2="399.5" stroke="#c53030" stroke-width="1.6"/>
<line x1="740.2" y1="399.5" x2="748.7" y2="371.2" stroke="#2f855a" stroke-width="1.6"/>
<line x1="748.7" y1="371.2" x2="757.1" y2="384.2" stroke="#c53030" stroke-width="1.6"/>
<line x1="757.1" y1="384.2" x2="765.6" y2="324.0" stroke="#2f855a" stroke-width="1.6"/>
<line x1="765.6" y1="324.0" x2="774.0" y2="340.9" stroke="#c53030" stroke-width="1.6"/>
<line x1="774.0" y1="340.9" x2="782.5" y2="304.4" stroke="#2f855a" stroke-width="1.6"/>
<line x1="782.5" y1="304.4" x2="790.9" y2="321.2" stroke="#c53030" stroke-width="1.6"/>
<line x1="790.9" y1="321.2" x2="799.4" y2="235.8" stroke="#2f855a" stroke-width="1.6"/>
<line x1="799.4" y1="235.8" x2="807.8" y2="263.2" stroke="#c53030" stroke-width="1.6"/>
<line x1="807.8" y1="263.2" x2="816.3" y2="206.1" stroke="#2f855a" stroke-width="1.6"/>
<line x1="816.3" y1="206.1" x2="824.8" y2="249.3" stroke="#c53030" stroke-width="1.6"/>
<line x1="824.8" y1="249.3" x2="833.2" y2="222.1" stroke="#2f855a" stroke-width="1.6"/>
<line x1="833.2" y1="222.1" x2="841.7" y2="266.0" stroke="#c53030" stroke-width="1.6"/>
<line x1="841.7" y1="266.0" x2="850.1" y2="157.6" stroke="#2f855a" stroke-width="1.6"/>
<line x1="850.1" y1="157.6" x2="858.6" y2="222.0" stroke="#c53030" stroke-width="1.6"/>
<line x1="858.6" y1="222.0" x2="867.0" y2="168.3" stroke="#2f855a" stroke-width="1.6"/>
<line x1="867.0" y1="168.3" x2="875.5" y2="207.9" stroke="#c53030" stroke-width="1.6"/>
<line x1="875.5" y1="207.9" x2="883.9" y2="100.7" stroke="#2f855a" stroke-width="1.6"/>
<line x1="883.9" y1="100.7" x2="892.4" y2="143.3" stroke="#c53030" stroke-width="1.6"/>
<line x1="892.4" y1="143.3" x2="900.8" y2="65.9" stroke="#2f855a" stroke-width="1.6"/>
<line x1="900.8" y1="65.9" x2="909.3" y2="157.6" stroke="#c53030" stroke-width="1.6"/>
<line x1="909.3" y1="157.6" x2="917.7" y2="67.1" stroke="#2f855a" stroke-width="1.6"/>
<line x1="917.7" y1="67.1" x2="926.2" y2="151.3" stroke="#c53030" stroke-width="1.6"/>
<line x1="926.2" y1="151.3" x2="934.6" y2="79.6" stroke="#2f855a" stroke-width="1.6"/>
<line x1="934.6" y1="79.6" x2="943.1" y2="227.4" stroke="#c53030" stroke-width="1.6"/>
<line x1="943.1" y1="227.4" x2="951.5" y2="140.6" stroke="#2f855a" stroke-width="1.6"/>
<line x1="951.5" y1="140.6" x2="960.0" y2="257.1" stroke="#c53030" stroke-width="1.6"/>
<circle cx="64.0" cy="494.8" r="2.2" fill="#475569"/>
<circle cx="72.5" cy="493.3" r="2.2" fill="#475569"/>
<circle cx="80.9" cy="494.4" r="2.2" fill="#475569"/>
<circle cx="89.4" cy="492.4" r="2.2" fill="#475569"/>
<circle cx="97.8" cy="498.1" r="2.2" fill="#475569"/>
<circle cx="106.3" cy="495.9" r="2.2" fill="#475569"/>
<circle cx="114.7" cy="498.0" r="2.2" fill="#475569"/>
<circle cx="123.2" cy="496.5" r="2.2" fill="#475569"/>
<circle cx="131.6" cy="497.9" r="2.2" fill="#475569"/>
<circle cx="140.1" cy="495.1" r="2.2" fill="#475569"/>
<circle cx="148.5" cy="496.6" r="2.2" fill="#475569"/>
<circle cx="157.0" cy="496.0" r="2.2" fill="#475569"/>
<circle cx="165.4" cy="496.5" r="2.2" fill="#475569"/>
<circle cx="173.9" cy="495.2" r="2.2" fill="#475569"/>
<circle cx="182.3" cy="495.9" r="2.2" fill="#475569"/>
<circle cx="190.8" cy="494.0" r="2.2" fill="#475569"/>
<circle cx="199.2" cy="495.0" r="2.2" fill="#475569"/>
<circle cx="207.7" cy="494.5" r="2.2" fill="#475569"/>
<circle cx="216.2" cy="494.9" r="2.2" fill="#475569"/>
<circle cx="224.6" cy="494.4" r="2.2" fill="#475569"/>
<circle cx="233.1" cy="495.5" r="2.2" fill="#475569"/>
<circle cx="241.5" cy="495.2" r="2.2" fill="#475569"/>
<circle cx="250.0" cy="495.8" r="2.2" fill="#475569"/>
<circle cx="258.4" cy="495.1" r="2.2" fill="#475569"/>
<circle cx="266.9" cy="495.5" r="2.2" fill="#475569"/>
<circle cx="275.3" cy="495.0" r="2.2" fill="#475569"/>
<circle cx="283.8" cy="495.8" r="2.2" fill="#475569"/>
<circle cx="292.2" cy="495.2" r="2.2" fill="#475569"/>
<circle cx="300.7" cy="495.7" r="2.2" fill="#475569"/>
<circle cx="309.1" cy="494.2" r="2.2" fill="#475569"/>
<circle cx="317.6" cy="495.3" r="2.2" fill="#475569"/>
<circle cx="326.0" cy="494.6" r="2.2" fill="#475569"/>
<circle cx="334.5" cy="495.2" r="2.2" fill="#475569"/>
<circle cx="342.9" cy="493.4" r="2.2" fill="#475569"/>
<circle cx="351.4" cy="494.0" r="2.2" fill="#475569"/>
<circle cx="359.8" cy="482.8" r="2.2" fill="#475569"/>
<circle cx="368.3" cy="485.9" r="2.2" fill="#475569"/>
<circle cx="376.8" cy="477.8" r="2.2" fill="#475569"/>
<circle cx="385.2" cy="481.8" r="2.2" fill="#475569"/>
<circle cx="393.7" cy="478.7" r="2.2" fill="#475569"/>
<circle cx="402.1" cy="481.7" r="2.2" fill="#475569"/>
<circle cx="410.6" cy="478.0" r="2.2" fill="#475569"/>
<circle cx="419.0" cy="480.8" r="2.2" fill="#475569"/>
<circle cx="427.5" cy="474.9" r="2.2" fill="#475569"/>
<circle cx="435.9" cy="476.7" r="2.2" fill="#475569"/>
<circle cx="444.4" cy="467.6" r="2.2" fill="#475569"/>
<circle cx="452.8" cy="472.7" r="2.2" fill="#475569"/>
<circle cx="461.3" cy="465.1" r="2.2" fill="#475569"/>
<circle cx="469.7" cy="468.9" r="2.2" fill="#475569"/>
<circle cx="478.2" cy="450.4" r="2.2" fill="#475569"/>
<circle cx="486.6" cy="459.8" r="2.2" fill="#475569"/>
<circle cx="495.1" cy="450.7" r="2.2" fill="#475569"/>
<circle cx="503.5" cy="460.7" r="2.2" fill="#475569"/>
<circle cx="512.0" cy="455.5" r="2.2" fill="#475569"/>
<circle cx="520.5" cy="469.3" r="2.2" fill="#475569"/>
<circle cx="528.9" cy="459.1" r="2.2" fill="#475569"/>
<circle cx="537.4" cy="468.4" r="2.2" fill="#475569"/>
<circle cx="545.8" cy="458.9" r="2.2" fill="#475569"/>
<circle cx="554.3" cy="463.6" r="2.2" fill="#475569"/>
<circle cx="562.7" cy="457.9" r="2.2" fill="#475569"/>
<circle cx="571.2" cy="466.2" r="2.2" fill="#475569"/>
<circle cx="579.6" cy="454.7" r="2.2" fill="#475569"/>
<circle cx="588.1" cy="459.6" r="2.2" fill="#475569"/>
<circle cx="596.5" cy="408.6" r="2.2" fill="#475569"/>
<circle cx="605.0" cy="418.9" r="2.2" fill="#475569"/>
<circle cx="613.4" cy="377.6" r="2.2" fill="#475569"/>
<circle cx="621.9" cy="394.8" r="2.2" fill="#475569"/>
<circle cx="630.3" cy="368.6" r="2.2" fill="#475569"/>
<circle cx="638.8" cy="398.8" r="2.2" fill="#475569"/>
<circle cx="647.2" cy="388.9" r="2.2" fill="#475569"/>
<circle cx="655.7" cy="402.9" r="2.2" fill="#475569"/>
<circle cx="664.2" cy="379.2" r="2.2" fill="#475569"/>
<circle cx="672.6" cy="396.5" r="2.2" fill="#475569"/>
<circle cx="681.1" cy="374.8" r="2.2" fill="#475569"/>
<circle cx="689.5" cy="390.5" r="2.2" fill="#475569"/>
<circle cx="698.0" cy="380.4" r="2.2" fill="#475569"/>
<circle cx="706.4" cy="399.8" r="2.2" fill="#475569"/>
<circle cx="714.9" cy="390.4" r="2.2" fill="#475569"/>
<circle cx="723.3" cy="407.2" r="2.2" fill="#475569"/>
<circle cx="731.8" cy="358.8" r="2.2" fill="#475569"/>
<circle cx="740.2" cy="399.5" r="2.2" fill="#475569"/>
<circle cx="748.7" cy="371.2" r="2.2" fill="#475569"/>
<circle cx="757.1" cy="384.2" r="2.2" fill="#475569"/>
<circle cx="765.6" cy="324.0" r="2.2" fill="#475569"/>
<circle cx="774.0" cy="340.9" r="2.2" fill="#475569"/>
<circle cx="782.5" cy="304.4" r="2.2" fill="#475569"/>
<circle cx="790.9" cy="321.2" r="2.2" fill="#475569"/>
<circle cx="799.4" cy="235.8" r="2.2" fill="#475569"/>
<circle cx="807.8" cy="263.2" r="2.2" fill="#475569"/>
<circle cx="816.3" cy="206.1" r="2.2" fill="#475569"/>
<circle cx="824.8" cy="249.3" r="2.2" fill="#475569"/>
<circle cx="833.2" cy="222.1" r="2.2" fill="#475569"/>
<circle cx="841.7" cy="266.0" r="2.2" fill="#475569"/>
<circle cx="850.1" cy="157.6" r="2.2" fill="#475569"/>
<circle cx="858.6" cy="222.0" r="2.2" fill="#475569"/>
<circle cx="867.0" cy="168.3" r="2.2" fill="#475569"/>
<circle cx="875.5" cy="207.9" r="2.2" fill="#475569"/>
<circle cx="883.9" cy="100.7" r="2.2" fill="#475569"/>
<circle cx="892.4" cy="143.3" r="2.2" fill="#475569"/>
<circle cx="900.8" cy="65.9" r="2.2" fill="#475569"/>
<circle cx="909.3" cy="157.6" r="2.2" fill="#475569"/>
<circle cx="917.7" cy="67.1" r="2.2" fill="#475569"/>
<circle cx="926.2" cy="151.3" r="2.2" fill="#475569"/>
<circle cx="934.6" cy="79.6" r="2.2" fill="#475569"/>
<circle cx="943.1" cy="227.4" r="2.2" fill="#475569"/>
<circle cx="951.5" cy="140.6" r="2.2" fill="#475569"/>
<circle cx="960.0" cy="257.1" r="2.2" fill="#475569"/>
<line x1="64" y1="94.6" x2="960" y2="94.6" stroke="#2563eb" stroke-width="1.2" stroke-dasharray="3,4"/>
<text x="68" y="90.6" font-size="10" fill="#2563eb">target 2,200 (C = A from B extreme)</text>
<text x="64" y="24" font-size="16" font-weight="600" fill="#1a202c">SNDK — Elliott Wave count — double_zigzag (up)</text>
<text x="64" y="550" font-size="11" fill="#718096">Degree 2 Y in progress; within it, degree 1 (C) unfolding (zigzag)</text>
<text x="613.4" y="357.6" font-size="13" font-style="normal" fill="#1a202c" text-anchor="middle">W</text>
<text x="478.2" y="442.4" font-size="10" font-style="normal" fill="#718096" text-anchor="middle">(A)</text>
<text x="520.5" y="487.3" font-size="10" font-style="normal" fill="#718096" text-anchor="middle">(B)</text>
<text x="613.4" y="369.6" font-size="10" font-style="normal" fill="#718096" text-anchor="middle">(C)</text>
<text x="723.3" y="440.2" font-size="13" font-style="normal" fill="#1a202c" text-anchor="middle">X</text>
<text x="638.8" y="416.8" font-size="10" font-style="normal" fill="#718096" text-anchor="middle">(A)</text>
<text x="681.1" y="366.8" font-size="10" font-style="normal" fill="#718096" text-anchor="middle">(B)</text>
<text x="723.3" y="425.2" font-size="10" font-style="normal" fill="#718096" text-anchor="middle">(C)</text>
<text x="960.0" y="290.1" font-size="13" font-style="italic" fill="#1a202c" text-anchor="middle">Y</text>
<text x="799.4" y="227.8" font-size="10" font-style="normal" fill="#718096" text-anchor="middle">(A)</text>
<text x="841.7" y="284.0" font-size="10" font-style="normal" fill="#718096" text-anchor="middle">(B)</text>
<text x="960.0" y="275.1" font-size="10" font-style="italic" fill="#718096" text-anchor="middle">(C)</text>
</svg>